<svg width="302" height="91" viewBox="0 0 302 91" fill="none" xmlns="http://www.w3.org/2000/svg"><path d="M46.72 0.845001C53.73 -1.21 61.695 3.4 63.49 10.455C65.645 17.38 61.29 25.39 54.335 27.385C47.385 29.75 39.17 25.44 37.1 18.42C34.565 11.205 39.29 2.61 46.72 0.845001Z" fill="#EA2126"/><path d="M0.475002 30.645C13.5 39.44 26.51 48.25 39.525 57.06C39.535 49.06 39.52 41.065 39.53 33.065C42.71 33.06 45.885 33.06 49.06 33.065C49.065 51.425 49.065 69.79 49.06 88.155C46.155 88.16 43.255 88.15 40.355 88.16C27.05 78.965 13.765 69.745 0.470002 60.535C0.475002 50.57 0.460002 40.61 0.475002 30.645Z" fill="#888B8D"/><path d="M51.655 33.065C54.28 33.075 56.91 33.04 59.535 33.065C60.34 32.99 60.915 33.64 61.54 34.035C74.16 43.02 86.85 51.91 99.46 60.91C99.405 70.855 99.46 80.795 99.435 90.74C86.685 81.895 73.94 73.04 61.19 64.195C61.185 72.185 61.19 80.17 61.185 88.155C58.01 88.155 54.835 88.16 51.66 88.155C51.65 69.79 51.66 51.425 51.655 33.065Z" fill="#888B8D"/><path d="M117.475 33.25C123.47 33.25 129.47 33.25 135.47 33.25C135.47 38.44 135.475 43.625 135.47 48.815C129.47 48.81 123.47 48.815 117.47 48.81C117.47 43.625 117.465 38.44 117.475 33.25Z" fill="#888B8D"/><path d="M143.05 43.53C145.75 37.36 152.28 33.165 159.015 33.255C178.505 33.245 198 33.25 217.495 33.255C218.77 33.065 220.015 34.135 219.895 35.445C219.925 53.87 219.9 72.29 219.905 90.715C213.895 90.72 207.885 90.72 201.88 90.715C201.865 77.465 201.89 64.215 201.865 50.965C201.98 49.685 200.74 48.66 199.5 48.815C187.17 48.81 174.84 48.81 162.51 48.815C161.055 48.695 159.565 49.635 159.22 51.08C158.685 52.855 160.17 54.855 162.03 54.835C168.335 54.895 174.65 54.67 180.955 54.785C189.11 55.2 196.37 61.86 197.49 69.945C198.945 78.13 193.825 86.81 186 89.575C183.925 90.36 181.7 90.72 179.485 90.72C158.815 90.715 138.145 90.72 117.47 90.715C117.465 78.385 117.47 66.05 117.47 53.72C123.47 53.715 129.47 53.72 135.47 53.715C135.49 59.32 135.44 64.925 135.49 70.53C135.37 71.88 136.7 72.9 137.985 72.69C151.335 72.675 164.685 72.705 178.03 72.675C179.78 72.805 180.98 70.56 179.915 69.175C179.41 68.36 178.41 68.145 177.52 68.185C171.35 68.185 165.18 68.2 159.01 68.18C154.255 68.2 149.535 66.19 146.285 62.72C141.455 57.755 140.095 49.805 143.05 43.53Z" fill="#888B8D"/><path d="M225.265 35.46C225.115 33.97 226.61 33.015 227.975 33.245C246.48 33.29 264.985 33.38 283.49 33.445C290.18 33.415 296.64 37.395 299.715 43.32C301.345 46.265 301.84 49.655 302 52.97V90.67C290.335 90.77 278.665 90.705 267 90.705C259.675 90.645 252.74 85.6 250.415 78.66C248.12 72.35 249.815 64.845 254.575 60.12C257.91 56.675 262.675 54.72 267.46 54.725C272.71 54.7 277.96 54.73 283.21 54.715C283.2 53.16 283.325 51.59 283.115 50.04C282.82 48.885 281.505 48.76 280.525 48.805C268.84 48.84 257.15 48.78 245.47 48.835C244.275 48.735 243.18 49.77 243.295 50.98C243.26 64.225 243.295 77.475 243.28 90.72C237.27 90.72 231.26 90.72 225.25 90.72C225.255 72.3 225.235 53.88 225.265 35.46ZM265.73 71.02C265.855 72.36 267.175 73.34 268.495 73.235C273.355 73.27 278.225 73.24 283.09 73.25C283.09 71.56 283.09 69.875 283.095 68.19C278.225 68.19 273.36 68.18 268.495 68.19C266.945 68.025 265.485 69.455 265.73 71.02Z" fill="#888B8D"/></svg>