<svg width="479" height="800" fill="none" xmlns="http://www.w3.org/2000/svg"><path d="M476.413 56.19a.335.335 0 01-.333-.334V26.303H2.195v29.553a.333.333 0 01-.667 0V25.969c0-.184.15-.333.333-.333h474.552c.184 0 .334.15.334.333v29.887c0 .184-.15.333-.334.333v.001zM263.879 326.379a.332.332 0 01-.334-.334v-29.553H4.125v29.553a.335.335 0 01-.667 0V296.16c0-.186.15-.334.334-.334h260.087c.184 0 .333.148.333.334v29.886c0 .184-.15.334-.333.334" fill="#838687"/><path d="M150.228 15.079h-2.28l-6.04-6.72v6.72h-1.86v-14h1.86v6.32l5.84-6.32h2.28l-6.18 6.8 6.38 7.2zm13.74-10h1.4v10h-1.72V8.057l-5.54 7.022h-1.4v-10h1.72v7.02l5.54-7.02zm9.44 4.88c1.107.453 1.66 1.246 1.66 2.378 0 .842-.333 1.55-1 2.13-.667.58-1.613.87-2.84.87-2 0-3.34-.8-4.021-2.4l1.461-.86c.387 1.095 1.245 1.64 2.579 1.64.666 0 1.184-.142 1.55-.43.367-.286.551-.655.551-1.11 0-.4-.15-.725-.45-.98-.3-.252-.705-.38-1.21-.38h-1.46v-1.58h1.079c.506 0 .9-.122 1.18-.37.28-.246.421-.582.421-1.01a1.282 1.282 0 00-.49-1.04c-.327-.265-.778-.4-1.35-.4-1.12 0-1.88.474-2.28 1.42l-1.421-.82c.708-1.465 1.94-2.2 3.701-2.2 1.092 0 1.956.28 2.59.84.633.56.95 1.248.95 2.06 0 1.015-.401 1.76-1.2 2.24v.002zm8.44 3.54c.507 0 .897-.12 1.17-.36.273-.24.409-.582.409-1.022 0-.412-.136-.736-.408-.97-.274-.232-.664-.35-1.171-.35h-3.201v2.7l3.201.002zm-.38-6.86h-2.821v2.618h2.821c1.012 0 1.519-.445 1.519-1.34 0-.852-.507-1.278-1.519-1.278zm2.14 3.3c1.027.426 1.539 1.2 1.539 2.318 0 .828-.276 1.504-.83 2.03-.553.528-1.344.79-2.369.79h-5v-10h4.6c1 0 1.772.25 2.319.75.546.5.821 1.158.821 1.97 0 .96-.36 1.675-1.08 2.14v.002zm8.099-3.48c-.934 0-1.707.262-2.32.789-.614.527-.994 1.23-1.14 2.11h6.68c-.147-.946-.519-1.666-1.12-2.16-.6-.493-1.3-.74-2.1-.74zm-3.46 4.42c.173.893.584 1.586 1.229 2.08.648.493 1.444.738 2.39.738 1.322 0 2.28-.485 2.88-1.458l1.48.84c-.973 1.506-2.44 2.258-4.4 2.258-1.586 0-2.875-.496-3.869-1.49-.993-.992-1.489-2.25-1.489-3.77 0-1.505.485-2.76 1.459-3.76.973-1 2.233-1.5 3.78-1.5 1.466 0 2.662.518 3.59 1.55.927 1.034 1.391 2.278 1.391 3.73 0 .255-.021.515-.06.78h-8.381v.002zm24.041 2.538h1.379v4.34h-1.72v-2.678h-13.259v-10h1.739v8.338h4.201V5.079h1.739v8.338h4.18V5.079h1.741v8.338zm7.579.242c1.013 0 1.86-.344 2.54-1.031.68-.687 1.02-1.536 1.02-2.55 0-1.013-.34-1.863-1.02-2.55-.68-.687-1.527-1.03-2.54-1.03-1 0-1.84.343-2.52 1.03-.68.687-1.02 1.537-1.02 2.55 0 1.014.34 1.863 1.02 2.55.68.687 1.52 1.03 2.52 1.03zm3.56-8.58h1.74v10h-1.74v-1.72c-.867 1.32-2.127 1.978-3.78 1.978-1.4 0-2.594-.51-3.58-1.53-.987-1.02-1.48-2.262-1.48-3.73 0-1.465.493-2.71 1.48-3.73.986-1.02 2.18-1.53 3.58-1.53 1.653 0 2.913.66 3.78 1.98v-1.72.002zm11.82 0v1.678h-3.4v8.322h-1.74V6.757h-3.419V5.079h8.559zm5.8 1.38c-.934 0-1.707.262-2.32.789-.614.527-.994 1.23-1.14 2.11h6.68c-.147-.946-.52-1.666-1.12-2.16-.6-.493-1.3-.74-2.1-.74zm-3.46 4.42c.173.893.584 1.586 1.229 2.08.648.493 1.444.738 2.39.738 1.32 0 2.28-.485 2.88-1.458l1.48.84c-.973 1.506-2.44 2.258-4.4 2.258-1.586 0-2.875-.496-3.869-1.49-.994-.992-1.49-2.25-1.49-3.77 0-1.505.486-2.76 1.46-3.76.973-1 2.233-1.5 3.78-1.5 1.466 0 2.662.518 3.589 1.55.928 1.034 1.39 2.278 1.39 3.73 0 .255-.02.515-.058.78h-8.381v.002zm18.381-5.8v10h-1.74V6.757h-3.94v4.08c0 1.64-.33 2.784-.99 3.43-.662.648-1.591.918-2.79.81v-1.64c.68.094 1.19-.056 1.53-.45.34-.392.509-1.122.509-2.19v-5.72h7.421v.002zm5.92 4.838h2.479v-3.22h-2.479c-.493 0-.915.148-1.26.442-.347.293-.52.686-.52 1.18 0 .48.173.866.52 1.158.345.295.767.44 1.26.44zm4.199-4.838v10h-1.72v-3.602h-1.459l-2.8 3.602h-2.12l2.92-3.7c-.747-.187-1.353-.56-1.821-1.122a2.974 2.974 0 01-.699-1.958c0-.92.327-1.687.979-2.3.654-.614 1.474-.92 2.461-.92h4.259zm12.641 0v10h-1.701v-7.26l-3.179 5.12h-.22l-3.18-5.12v7.26h-1.72v-10h1.859l3.141 5.06 3.139-5.06h1.861zm14.419 10.258c-2.12 0-3.87-.698-5.25-2.098-1.378-1.402-2.069-3.122-2.069-5.16 0-2.04.69-3.76 2.07-5.162 1.38-1.398 3.129-2.098 5.249-2.098 1.28 0 2.457.306 3.53.92a6.657 6.657 0 012.511 2.48l-1.62.94c-.4-.774-.997-1.391-1.79-1.851a5.147 5.147 0 00-2.631-.69c-1.614 0-2.93.52-3.95 1.56s-1.529 2.34-1.529 3.9c0 1.547.51 2.84 1.53 3.88s2.335 1.56 3.949 1.56c.961 0 1.837-.23 2.63-.69.794-.46 1.391-1.07 1.791-1.83l1.62.92c-.588 1.04-1.42 1.87-2.5 2.49a6.99 6.99 0 01-3.541.93v-.001zm10.75-3.39c1.034 1.048 2.316 1.57 3.85 1.57 1.533 0 2.817-.522 3.85-1.57 1.034-1.046 1.55-2.335 1.55-3.87 0-1.546-.516-2.842-1.55-3.89-1.033-1.046-2.317-1.57-3.85-1.57-1.534 0-2.816.524-3.85 1.57-1.033 1.048-1.549 2.344-1.549 3.89 0 1.535.516 2.824 1.55 3.87h-.001zm9 1.27c-1.406 1.415-3.124 2.12-5.15 2.12-2.027 0-3.739-.705-5.14-2.12-1.4-1.412-2.099-3.125-2.099-5.14 0-2.025.699-3.742 2.099-5.15 1.401-1.406 3.113-2.11 5.14-2.11 2.026 0 3.744.704 5.15 2.11 1.406 1.408 2.111 3.125 2.111 5.15 0 2.015-.705 3.728-2.11 5.14h-.001zM325.408 1.08v1.758h-4.14v12.242h-1.84V2.837h-4.121V1.079h10.101zm7.619 14.258c-2.119 0-3.87-.698-5.25-2.098-1.378-1.402-2.069-3.122-2.069-5.16 0-2.04.69-3.76 2.07-5.162 1.38-1.398 3.13-2.098 5.249-2.098 1.28 0 2.457.306 3.53.92a6.645 6.645 0 012.511 2.48l-1.62.94c-.4-.774-.997-1.391-1.79-1.851a5.147 5.147 0 00-2.631-.69c-1.614 0-2.93.52-3.948 1.56-1.022 1.04-1.531 2.34-1.531 3.9 0 1.547.51 2.84 1.53 3.88s2.335 1.56 3.949 1.56c.961 0 1.837-.23 2.63-.69.794-.46 1.391-1.07 1.791-1.83l1.62.92c-.588 1.04-1.42 1.87-2.5 2.49a6.99 6.99 0 01-3.541.93v-.001zM66.776 268.043h-2.28l-6.04-6.72v6.72h-1.86v-14h1.86v6.32l5.841-6.32h2.28l-6.181 6.8 6.38 7.2zm15.14-10v10h-1.74v-8.34h-5.18v8.34h-1.74v-10h8.66zm7.32 1.38c-.933 0-1.708.264-2.321.79-.612.527-.994 1.23-1.139 2.11h6.68c-.148-.947-.52-1.667-1.12-2.16a3.21 3.21 0 00-2.1-.74zm-3.46 4.42c.173.893.583 1.586 1.23 2.08.646.494 1.443.74 2.39.74 1.32 0 2.28-.487 2.88-1.46l1.479.84c-.972 1.508-2.44 2.26-4.399 2.26-1.588 0-2.877-.496-3.87-1.49-.994-.993-1.49-2.25-1.49-3.77 0-1.507.485-2.76 1.46-3.76.972-1 2.233-1.5 3.78-1.5 1.465 0 2.663.517 3.59 1.55.926 1.034 1.39 2.278 1.39 3.73a5.4 5.4 0 01-.06.78h-8.38zm15.74 2.78c1 0 1.84-.343 2.52-1.03.68-.686 1.02-1.537 1.02-2.55 0-1.014-.34-1.863-1.02-2.55-.68-.686-1.52-1.03-2.52-1.03-1.013 0-1.86.344-2.541 1.03-.679.687-1.019 1.536-1.019 2.55 0 1.013.34 1.864 1.019 2.55.681.687 1.528 1.03 2.541 1.03zm.22-8.84c1.4 0 2.593.51 3.58 1.53.987 1.02 1.48 2.263 1.48 3.73 0 1.466-.493 2.71-1.48 3.73s-2.18 1.53-3.58 1.53c-1.655 0-2.913-.66-3.78-1.98v5.72h-1.74v-14h1.74v1.72c.867-1.32 2.125-1.98 3.78-1.98zm14.4.26h1.4v10h-1.72v-7.02l-5.54 7.02h-1.4v-10h1.72v7.02l5.54-7.02zm14.04 0v10h-1.701v-7.26l-3.179 5.12h-.22l-3.18-5.12v7.26h-1.72v-10h1.859l3.141 5.06 3.139-5.06h1.861zm7.34 1.38c-.935 0-1.708.264-2.321.79-.614.527-.994 1.23-1.139 2.11h6.68c-.148-.947-.52-1.667-1.12-2.16a3.21 3.21 0 00-2.1-.74zm-3.46 4.42c.173.893.583 1.586 1.23 2.08.646.494 1.443.74 2.39.74 1.32 0 2.28-.487 2.88-1.46l1.479.84c-.972 1.508-2.44 2.26-4.399 2.26-1.588 0-2.877-.496-3.87-1.49-.994-.993-1.49-2.25-1.49-3.77 0-1.507.485-2.76 1.46-3.76.972-1 2.233-1.5 3.78-1.5 1.465 0 2.663.517 3.59 1.55.926 1.034 1.39 2.278 1.39 3.73a5.4 5.4 0 01-.06.78h-8.38zm17.48-5.8v1.68h-3.4v8.32h-1.74v-8.32h-3.42v-1.68h8.56zm6.82 8.58c1 0 1.839-.343 2.52-1.03.68-.686 1.02-1.537 1.02-2.55 0-1.014-.34-1.863-1.02-2.55-.681-.686-1.52-1.03-2.52-1.03-1.013 0-1.86.344-2.541 1.03-.679.687-1.019 1.536-1.019 2.55 0 1.013.34 1.864 1.019 2.55.681.687 1.528 1.03 2.541 1.03zm.22-8.84c1.399 0 2.593.51 3.58 1.53.985 1.02 1.48 2.263 1.48 3.73 0 1.466-.495 2.71-1.48 3.73-.987 1.02-2.181 1.53-3.58 1.53-1.655 0-2.913-.66-3.78-1.98v5.72h-1.74v-14h1.74v1.72c.867-1.32 2.125-1.98 3.78-1.98zm11.839 8.82c1 0 1.84-.34 2.521-1.02.68-.68 1.02-1.527 1.02-2.54 0-1.014-.34-1.86-1.02-2.54-.681-.68-1.521-1.02-2.521-1.02-.987 0-1.819.34-2.5 1.02-.679.68-1.019 1.526-1.019 2.54 0 1.013.34 1.86 1.019 2.54.681.68 1.513 1.02 2.5 1.02zm3.741.18c-1.027 1.013-2.273 1.52-3.741 1.52-1.466 0-2.71-.507-3.728-1.52-1.022-1.014-1.531-2.26-1.531-3.74 0-1.48.51-2.727 1.53-3.74 1.02-1.014 2.263-1.52 3.729-1.52 1.468 0 2.714.506 3.741 1.52 1.027 1.013 1.539 2.26 1.539 3.74 0 1.48-.512 2.726-1.539 3.74zm8.499-.32c.506 0 .897-.12 1.17-.36.272-.24.41-.58.41-1.02 0-.414-.138-.736-.41-.97-.273-.233-.664-.35-1.17-.35h-3.2v2.7h3.2zm-.38-6.86h-2.82v2.62h2.82c1.013 0 1.52-.446 1.52-1.34 0-.854-.507-1.28-1.52-1.28zm2.14 3.3c1.026.428 1.54 1.2 1.54 2.32 0 .828-.276 1.504-.83 2.03-.553.527-1.344.79-2.37.79h-5v-10h4.601c1 0 1.772.25 2.319.75.546.5.82 1.156.82 1.97 0 .96-.359 1.673-1.08 2.14zm12.421-4.86h1.74v10h-1.74v-10zm-4.78 8.38c.492 0 .91-.143 1.25-.43.34-.286.509-.67.509-1.15 0-.48-.17-.867-.51-1.16-.338-.294-.757-.44-1.249-.44h-2.48v3.18h2.48zm0-4.78c1 0 1.83.297 2.49.89.66.594.989 1.363.989 2.31 0 .946-.33 1.717-.99 2.31-.66.594-1.489.89-2.489.89h-4.22v-10h1.74v3.6h2.48zm19.18-3.6v10h-1.701v-7.26l-3.179 5.12h-.22l-3.18-5.12v7.26h-1.72v-10h1.859l3.141 5.06 3.139-5.06h1.861zm-188.211 26.26c-1.505 0-2.758-.503-3.758-1.51-1-1.006-1.5-2.257-1.5-3.75 0-1.492.5-2.743 1.5-3.75 1-1.006 2.253-1.51 3.758-1.51.988 0 1.875.237 2.662.71a4.463 4.463 0 011.76 1.91l-1.46.84a2.962 2.962 0 00-1.171-1.28 3.38 3.38 0 00-1.79-.48c-1 0-1.835.34-2.509 1.02-.674.68-1.01 1.526-1.01 2.54 0 1 .336 1.84 1.01 2.52.674.68 1.508 1.02 2.508 1.02a3.494 3.494 0 001.802-.47c.532-.313.94-.737 1.22-1.27l1.478.86a4.854 4.854 0 01-1.838 1.89c-.8.474-1.687.71-2.662.71zm11.542-1.68c1 0 1.84-.343 2.52-1.03.68-.686 1.02-1.537 1.02-2.55 0-1.014-.34-1.863-1.02-2.55-.68-.686-1.52-1.03-2.52-1.03-1.014 0-1.86.344-2.542 1.03-.678.687-1.018 1.536-1.018 2.55 0 1.013.34 1.864 1.018 2.55.682.687 1.528 1.03 2.542 1.03zm.22-8.84c1.4 0 2.593.51 3.58 1.53.986 1.02 1.48 2.263 1.48 3.73 0 1.466-.494 2.71-1.48 3.73-.987 1.02-2.18 1.53-3.58 1.53-1.654 0-2.914-.66-3.78-1.98v5.72h-1.74v-14h1.74v1.72c.866-1.32 2.126-1.98 3.78-1.98zm11.82 1.64c-.934 0-1.707.264-2.32.79-.614.527-.994 1.23-1.14 2.11h6.68c-.147-.947-.52-1.667-1.12-2.16-.6-.494-1.3-.74-2.1-.74zm-3.46 4.42c.173.893.584 1.586 1.229 2.08.648.494 1.444.74 2.39.74 1.32 0 2.28-.487 2.88-1.46l1.48.84c-.973 1.508-2.44 2.26-4.4 2.26-1.587 0-2.875-.496-3.869-1.49-.994-.993-1.49-2.25-1.49-3.77 0-1.507.486-2.76 1.46-3.76.973-1 2.233-1.5 3.78-1.5 1.466 0 2.662.517 3.589 1.55.928 1.034 1.39 2.278 1.39 3.73 0 .253-.02.513-.06.78h-8.38.001zm12.278 2.54h4.642v-6.72h-3.94v3.02c0 1.493-.235 2.728-.702 3.7zm6.362 0h1.378v4.34h-1.72v-2.68h-7.5v2.68h-1.72v-4.34h1.22c.64-.88.962-2.114.962-3.7v-4.64h7.38v8.34zm7.56 1.92c-1.507 0-2.76-.503-3.76-1.51-1-1.006-1.5-2.257-1.5-3.75 0-1.492.5-2.743 1.5-3.75 1-1.006 2.253-1.51 3.76-1.51.986 0 1.873.237 2.66.71a4.46 4.46 0 011.76 1.91l-1.46.84a2.962 2.962 0 00-1.171-1.28 3.375 3.375 0 00-1.79-.48c-1 0-1.835.34-2.509 1.02-.674.68-1.01 1.526-1.01 2.54 0 1 .336 1.84 1.01 2.52.674.68 1.51 1.02 2.51 1.02.666 0 1.266-.156 1.8-.47a3.15 3.15 0 001.22-1.27l1.48.86a4.87 4.87 0 01-1.84 1.89 5.12 5.12 0 01-2.66.71zm13.5-10.26v1.68h-3.402v8.32h-1.74v-8.32h-3.418v-1.68h8.56zm6.42 8.42c.506 0 .897-.12 1.17-.36.272-.24.41-.58.41-1.02 0-.414-.138-.736-.41-.97-.273-.233-.664-.35-1.17-.35h-3.2v2.7h3.2zm-.38-6.86h-2.82v2.62h2.82c1.013 0 1.52-.446 1.52-1.34 0-.854-.507-1.28-1.52-1.28zm2.14 3.3c1.026.428 1.54 1.2 1.54 2.32 0 .828-.276 1.504-.83 2.03-.553.527-1.344.79-2.37.79h-5v-10h4.601c1 0 1.772.25 2.319.75.546.5.82 1.156.82 1.97 0 .96-.36 1.673-1.08 2.14zm8.14 3.72c1.013 0 1.858-.343 2.538-1.03.682-.686 1.022-1.537 1.022-2.55 0-1.014-.34-1.863-1.022-2.55-.68-.686-1.525-1.03-2.538-1.03-1 0-1.84.344-2.522 1.03-.678.687-1.018 1.536-1.018 2.55 0 1.013.34 1.864 1.018 2.55.682.687 1.522 1.03 2.522 1.03zm3.56-8.58h1.74v10h-1.74v-1.72c-.868 1.32-2.128 1.98-3.78 1.98-1.4 0-2.594-.51-3.582-1.53-.986-1.02-1.478-2.264-1.478-3.73 0-1.467.492-2.71 1.478-3.73.988-1.02 2.182-1.53 3.582-1.53 1.652 0 2.912.66 3.78 1.98v-1.72zm14.38 0v10h-1.7v-7.26l-3.18 5.12h-.22l-3.18-5.12v7.26h-1.72v-10h1.86l3.14 5.06 3.14-5.06h1.86zm12.36 8.56c1 0 1.838-.34 2.52-1.02.68-.68 1.02-1.527 1.02-2.54 0-1.014-.34-1.86-1.02-2.54-.682-.68-1.52-1.02-2.52-1.02-.988 0-1.82.34-2.5 1.02-.68.68-1.02 1.526-1.02 2.54 0 1.013.34 1.86 1.02 2.54.68.68 1.512 1.02 2.5 1.02zm3.74.18c-1.027 1.013-2.274 1.52-3.74 1.52-1.467 0-2.711-.507-3.73-1.52-1.021-1.014-1.53-2.26-1.53-3.74 0-1.48.509-2.727 1.53-3.74 1.019-1.014 2.263-1.52 3.73-1.52 1.466 0 2.713.506 3.74 1.52 1.026 1.013 1.54 2.26 1.54 3.74 0 1.48-.514 2.726-1.54 3.74zm5.798-1.04c.628.588 1.408.88 2.34.88.934 0 1.703-.287 2.311-.86.605-.572.91-1.292.91-2.16 0-.894-.29-1.623-.871-2.19-.579-.566-1.342-.85-2.288-.85-.855 0-1.624.27-2.312.81-.686.54-1.03 1.25-1.03 2.13 0 .908.314 1.653.94 2.24zm2.34 2.56c-1.48 0-2.7-.487-3.658-1.46-.962-.974-1.44-2.227-1.44-3.76 0-1.707.249-3.02.749-3.94.5-.92 1.523-1.754 3.07-2.5.28-.134.663-.307 1.15-.52.485-.212.843-.376 1.07-.49.226-.113.48-.266.76-.46a2.12 2.12 0 00.63-.64c.146-.252.251-.525.31-.81l1.4.8c-.04.213-.094.41-.16.59-.067.18-.163.354-.29.52l-.33.43c-.094.12-.25.25-.47.39-.221.14-.381.243-.48.31-.1.068-.295.166-.58.3l-.58.27c-.1.047-.324.139-.67.28-.347.14-.56.23-.64.27-.907.386-1.57.78-1.991 1.18-.419.4-.723.908-.91 1.52.42-.527.972-.935 1.6-1.18a5.17 5.17 0 011.92-.38c1.254 0 2.318.426 3.191 1.28.872.853 1.31 1.953 1.31 3.3 0 1.36-.467 2.484-1.4 3.369-.934.888-2.12 1.33-3.56 1.33l-.001.001zm13.72-10.26h1.74v10h-1.74v-4.18h-5.18v4.18h-1.74v-10h1.74v4.16h5.18v-4.16zm9.1 8.58c1.014 0 1.859-.343 2.539-1.03.681-.686 1.021-1.537 1.021-2.55 0-1.014-.34-1.863-1.021-2.55-.68-.686-1.525-1.03-2.539-1.03-1 0-1.84.344-2.521 1.03-.679.687-1.019 1.536-1.019 2.55 0 1.013.34 1.864 1.019 2.55.681.687 1.521 1.03 2.521 1.03zm3.56-8.58h1.74v10h-1.74v-1.72c-.868 1.32-2.128 1.98-3.78 1.98-1.4 0-2.593-.51-3.581-1.53-.987-1.02-1.479-2.264-1.479-3.73 0-1.467.492-2.71 1.479-3.73.988-1.02 2.181-1.53 3.581-1.53 1.652 0 2.912.66 3.78 1.98v-1.72zm9.68 8.58c1 0 1.84-.343 2.52-1.03.68-.686 1.02-1.537 1.02-2.55 0-1.014-.34-1.863-1.02-2.55-.68-.686-1.52-1.03-2.52-1.03-1.013 0-1.86.344-2.541 1.03-.679.687-1.019 1.536-1.019 2.55 0 1.013.34 1.864 1.019 2.55.681.687 1.528 1.03 2.541 1.03zm.22-8.84c1.399 0 2.594.51 3.58 1.53.986 1.02 1.48 2.263 1.48 3.73 0 1.466-.494 2.71-1.48 3.73s-2.181 1.53-3.58 1.53c-1.654 0-2.913-.66-3.78-1.98v5.72h-1.74v-14h1.74v1.72c.867-1.32 2.126-1.98 3.78-1.98zm13.72.26h1.86l-4.08 10.62c-.426 1.133-1.026 1.997-1.8 2.59a3.778 3.778 0 01-2.638.79v-1.62c1.226.093 2.125-.574 2.698-2l.16-.36-4.34-10.02h1.84l3.422 7.84 2.878-7.84zm15.402 10h-2.042l-3.738-4.74v4.74h-1.72v-4.74l-3.74 4.74h-2.022l4.182-5.16-3.98-4.84h2.018l3.542 4.42v-4.42h1.72v4.42l3.54-4.42h2.04l-4 4.84 4.2 5.16zm5.54-8.62c-.934 0-1.707.264-2.32.79-.614.527-.995 1.23-1.14 2.11h6.68c-.148-.947-.52-1.667-1.12-2.16a3.21 3.21 0 00-2.1-.74zm-3.46 4.42c.173.893.584 1.586 1.229 2.08.647.494 1.444.74 2.39.74 1.32 0 2.28-.487 2.88-1.46l1.48.84c-.973 1.508-2.44 2.26-4.4 2.26-1.587 0-2.877-.496-3.87-1.49-.993-.993-1.49-2.25-1.49-3.77 0-1.507.486-2.76 1.46-3.76.973-1 2.234-1.5 3.78-1.5 1.466 0 2.663.517 3.59 1.55.927 1.034 1.39 2.278 1.39 3.73 0 .253-.02.513-.06.78h-8.38.001zm17.358-5.8h1.74v10h-1.74v-4.18h-5.18v4.18h-1.74v-10h1.74v4.16h5.18v-4.16zm11.64 0h1.402v10h-1.72v-7.02l-5.54 7.02h-1.4v-10h1.72v7.02l5.538-7.02zm7.32 4.84h2.48v-3.22h-2.48c-.493 0-.913.146-1.26.44-.346.293-.52.686-.52 1.18 0 .48.174.866.52 1.16.347.293.767.44 1.26.44zm4.2-4.84v10h-1.72v-3.6h-1.46l-2.8 3.6h-2.118l2.918-3.7c-.746-.187-1.353-.56-1.82-1.12a2.97 2.97 0 01-.7-1.96c0-.92.327-1.687.98-2.3.654-.614 1.474-.92 2.46-.92h4.26zm103.538 125.938h-2.28l-6.04-6.72v6.72h-1.86v-14h1.86v6.322l5.841-6.322h2.28l-6.181 6.8 6.38 7.2zm8.68-2.3c.626.587 1.406.88 2.34.88.933 0 1.702-.286 2.31-.86.606-.572.91-1.292.91-2.16 0-.893-.29-1.624-.871-2.189-.579-.567-1.343-.85-2.288-.85-.855 0-1.624.269-2.312.809-.687.541-1.03 1.25-1.03 2.13 0 .908.314 1.654.94 2.24h.001zm2.34 2.56c-1.48 0-2.7-.486-3.66-1.46-.96-.973-1.44-2.226-1.44-3.76 0-1.706.25-3.02.75-3.938.5-.922 1.523-1.755 3.07-2.5.28-.135.664-.308 1.15-.522.486-.212.843-.376 1.07-.489.226-.113.48-.267.76-.46.28-.195.489-.408.63-.64a2.69 2.69 0 00.31-.81l1.4.8c-.04.213-.094.409-.16.59-.067.18-.163.353-.29.52l-.33.43c-.094.12-.251.249-.471.39-.22.139-.38.244-.479.31-.1.066-.294.166-.581.3-.285.134-.48.223-.579.269-.1.046-.324.141-.67.281-.347.14-.56.23-.64.27-.907.386-1.57.78-1.991 1.18-.419.4-.723.907-.91 1.52a3.81 3.81 0 011.6-1.18 5.17 5.17 0 011.92-.38c1.254 0 2.318.426 3.191 1.28.872.853 1.31 1.953 1.31 3.3 0 1.36-.467 2.483-1.399 3.37-.935.887-2.121 1.33-3.561 1.33v-.001zm14.781-10.26v10h-1.74v-8.32h-3.94v4.08c0 1.64-.33 2.784-.99 3.431-.66.645-1.591.916-2.79.81v-1.64c.68.093 1.19-.057 1.53-.45.34-.393.509-1.124.509-2.19v-5.72h7.421v-.001zm7.337 8.56c1 0 1.84-.34 2.522-1.02.68-.68 1.02-1.526 1.02-2.54 0-1.012-.34-1.86-1.02-2.54-.682-.68-1.522-1.02-2.522-1.02-.986 0-1.818.34-2.5 1.02-.678.68-1.018 1.528-1.018 2.54 0 1.014.34 1.86 1.018 2.54.682.68 1.514 1.02 2.5 1.02zm3.742.18c-1.027 1.014-2.274 1.52-3.742 1.52-1.465 0-2.709-.506-3.728-1.52-1.021-1.013-1.53-2.26-1.53-3.74 0-1.48.509-2.726 1.53-3.74 1.019-1.013 2.263-1.52 3.728-1.52 1.468 0 2.715.507 3.742 1.52 1.026 1.014 1.538 2.26 1.538 3.74 0 1.48-.512 2.727-1.538 3.74zm12.06 1.26h-2.16l-4.56-4.74v4.74h-1.74v-10h1.74v4.42l4.32-4.42h2.24l-4.78 4.84 4.94 5.16zm8.3-10h1.86l-4.08 10.62c-.427 1.134-1.027 1.996-1.8 2.591a3.78 3.78 0 01-2.639.79v-1.62c1.225.093 2.125-.574 2.699-2l.16-.36-4.34-10.02h1.84l3.42 7.84 2.88-7.84v-.001zm-78.45 24.56c1 0 1.84-.34 2.52-1.02.68-.68 1.02-1.526 1.02-2.54 0-1.012-.34-1.86-1.02-2.54-.68-.68-1.52-1.02-2.52-1.02-.986 0-1.818.34-2.5 1.02-.68.68-1.02 1.528-1.02 2.54 0 1.014.34 1.86 1.02 2.54.682.68 1.514 1.02 2.5 1.02zm3.74.18c-1.026 1.014-2.273 1.52-3.74 1.52-1.466 0-2.709-.506-3.729-1.52-1.021-1.013-1.53-2.26-1.53-3.74 0-1.48.509-2.726 1.53-3.74 1.02-1.013 2.263-1.52 3.73-1.52 1.466 0 2.713.507 3.74 1.52 1.026 1.014 1.54 2.26 1.54 3.74 0 1.48-.514 2.727-1.54 3.74h-.001zm5.8-1.04c.628.587 1.408.88 2.34.88.934 0 1.703-.286 2.311-.86.605-.572.91-1.292.91-2.16 0-.893-.29-1.624-.87-2.189-.58-.567-1.343-.85-2.29-.85-.854 0-1.623.269-2.311.809-.686.541-1.03 1.25-1.03 2.13 0 .908.314 1.654.94 2.24zm2.34 2.56c-1.478 0-2.698-.486-3.658-1.46-.962-.973-1.44-2.226-1.44-3.76 0-1.706.249-3.02.749-3.938.5-.922 1.523-1.755 3.07-2.5.28-.135.663-.308 1.15-.522a26 26 0 001.07-.489c.226-.113.48-.267.76-.46.28-.195.489-.408.63-.64.139-.233.244-.503.31-.81l1.4.8c-.04.213-.094.409-.16.59-.067.18-.163.353-.29.52-.127.167-.236.31-.33.43-.094.12-.25.249-.47.39-.22.139-.38.244-.48.31a5.29 5.29 0 01-.58.3l-.58.269c-.1.046-.324.141-.67.281-.346.14-.56.23-.64.27-.907.386-1.57.78-1.99 1.18-.42.4-.723.907-.91 1.52.42-.528.972-.935 1.6-1.18a5.202 5.202 0 011.92-.38c1.253 0 2.317.426 3.19 1.28.872.853 1.31 1.953 1.31 3.3 0 1.36-.467 2.483-1.4 3.37-.933.887-2.12 1.33-3.56 1.33l-.001-.001zm12.099-1.68c1 0 1.84-.342 2.521-1.03.68-.686 1.019-1.536 1.019-2.55 0-1.012-.339-1.862-1.019-2.55-.681-.686-1.521-1.03-2.521-1.03-1.013 0-1.859.344-2.54 1.03-.68.688-1.02 1.538-1.02 2.55 0 1.014.34 1.864 1.02 2.55.681.688 1.527 1.03 2.54 1.03zm.22-8.84c1.4 0 2.593.511 3.581 1.53.986 1.02 1.479 2.264 1.479 3.73 0 1.467-.493 2.711-1.479 3.73-.988 1.021-2.181 1.53-3.581 1.53-1.653 0-2.912-.658-3.78-1.98v5.72h-1.739v-14h1.739v1.72c.868-1.32 2.127-1.98 3.78-1.98zm11.861 8.84c1.012 0 1.859-.342 2.539-1.03.681-.686 1.021-1.536 1.021-2.55 0-1.012-.34-1.862-1.021-2.55-.68-.686-1.527-1.03-2.539-1.03-1 0-1.84.344-2.521 1.03-.68.688-1.02 1.538-1.02 2.55 0 1.014.34 1.864 1.02 2.55.681.688 1.521 1.03 2.521 1.03zm3.56-8.58h1.739v10h-1.739v-1.72c-.868 1.322-2.128 1.98-3.78 1.98-1.4 0-2.594-.509-3.581-1.53-.987-1.019-1.479-2.263-1.479-3.73 0-1.466.492-2.71 1.479-3.73.987-1.019 2.181-1.53 3.581-1.53 1.652 0 2.912.66 3.78 1.98v-1.72zm6.579 7.7c.628.587 1.408.88 2.34.88.933 0 1.703-.286 2.31-.86.607-.572.91-1.292.91-2.16 0-.893-.29-1.624-.87-2.189-.58-.567-1.342-.85-2.289-.85-.854 0-1.624.269-2.31.809-.687.541-1.031 1.25-1.031 2.13 0 .908.313 1.654.94 2.24zm2.34 2.56c-1.479 0-2.699-.486-3.659-1.46-.961-.973-1.44-2.226-1.44-3.76 0-1.706.25-3.02.75-3.938.5-.922 1.522-1.755 3.069-2.5.28-.135.664-.308 1.15-.522a24.79 24.79 0 001.07-.489 6.39 6.39 0 00.76-.46c.28-.195.49-.408.63-.64a2.64 2.64 0 00.311-.81l1.399.8a3.62 3.62 0 01-.16.59c-.067.18-.163.353-.29.52-.126.167-.235.31-.33.43-.093.12-.25.249-.47.39-.22.139-.38.244-.48.31a5.29 5.29 0 01-.58.3c-.286.134-.48.223-.58.269-.1.046-.323.141-.67.281-.345.14-.56.23-.639.27-.908.386-1.57.78-1.99 1.18-.42.4-.723.907-.911 1.52.42-.528.972-.935 1.6-1.18a5.163 5.163 0 011.921-.38c1.252 0 2.316.426 3.19 1.28.873.853 1.31 1.953 1.31 3.3 0 1.36-.468 2.483-1.4 3.37-.933.887-2.121 1.33-3.561 1.33v-.001zm11.5-1.7c1 0 1.84-.34 2.521-1.02.679-.68 1.019-1.526 1.019-2.54 0-1.012-.34-1.86-1.019-2.54-.681-.68-1.521-1.02-2.521-1.02-.987 0-1.819.34-2.5 1.02-.68.68-1.02 1.528-1.02 2.54 0 1.014.34 1.86 1.02 2.54.681.68 1.513 1.02 2.5 1.02zm3.741.18c-1.028 1.014-2.273 1.52-3.741 1.52-1.467 0-2.71-.506-3.73-1.52-1.02-1.013-1.529-2.26-1.529-3.74 0-1.48.51-2.726 1.53-3.74 1.02-1.013 2.262-1.52 3.729-1.52 1.468 0 2.713.507 3.741 1.52 1.026 1.014 1.539 2.26 1.539 3.74 0 1.48-.513 2.727-1.539 3.74zm10.64-8.74v1.68h-3.401v8.32h-1.739v-8.32h-3.42v-1.68h8.56zm9.98 10h-2.161l-4.559-4.74v4.74h-1.74v-10h1.74v4.42l4.32-4.42h2.239l-4.78 4.84 4.941 5.16zm8.879-10h1.401v10h-1.721v-7.02l-5.54 7.02h-1.4v-10h1.72v7.02l5.54-7.02zm-85.959 26.26c-1.506 0-2.758-.502-3.758-1.509s-1.5-2.257-1.5-3.75c0-1.494.5-2.743 1.5-3.75 1-1.007 2.252-1.51 3.758-1.51.987 0 1.874.237 2.66.709a4.467 4.467 0 011.76 1.91l-1.458.84a2.98 2.98 0 00-1.171-1.28 3.395 3.395 0 00-1.79-.48c-1 0-1.837.34-2.51 1.02-.675.68-1.01 1.528-1.01 2.54 0 1 .335 1.84 1.01 2.52.673.68 1.51 1.02 2.51 1.02.666 0 1.266-.157 1.8-.469a3.15 3.15 0 001.22-1.27l1.48.86a4.828 4.828 0 01-1.84 1.889 5.12 5.12 0 01-2.66.71h-.001zm13.5-10.26h1.402v10h-1.72v-7.02l-5.542 7.02h-1.398v-10h1.72v7.02l5.538-7.02zm10.6 0v1.68h-4.82v8.32h-1.74v-10h6.56zm8.439 0h1.741v10h-1.741v-4.178h-5.179v4.178h-1.74v-10h1.74v4.16h5.179v-4.16zm9.101 8.58c1.014 0 1.86-.342 2.54-1.03.682-.686 1.02-1.536 1.02-2.55 0-1.012-.338-1.862-1.02-2.55-.68-.686-1.526-1.03-2.54-1.03-1 0-1.838.344-2.52 1.03-.68.688-1.02 1.538-1.02 2.55 0 1.014.34 1.864 1.02 2.55.682.688 1.52 1.03 2.52 1.03zm3.56-8.58h1.74v10h-1.74v-1.72c-.866 1.322-2.126 1.98-3.78 1.98-1.398 0-2.593-.509-3.58-1.53-.986-1.019-1.478-2.263-1.478-3.73 0-1.466.492-2.71 1.478-3.73.987-1.019 2.182-1.53 3.58-1.53 1.654 0 2.914.66 3.78 1.98v-1.72zm12.719 0v10h-1.739v-8.32h-3.94v4.08c0 1.64-.33 2.784-.99 3.431-.662.645-1.591.916-2.79.81v-1.64c.679.093 1.19-.057 1.53-.45.34-.393.509-1.124.509-2.19v-5.72h7.42v-.001zm7.34 8.56c1 0 1.84-.34 2.521-1.02.68-.68 1.02-1.526 1.02-2.54 0-1.012-.34-1.86-1.02-2.54-.681-.68-1.521-1.02-2.521-1.02-.987 0-1.819.34-2.5 1.02-.679.68-1.019 1.528-1.019 2.54 0 1.014.34 1.86 1.019 2.54.681.68 1.513 1.02 2.5 1.02zm3.741.18c-1.028 1.014-2.273 1.52-3.741 1.52-1.465 0-2.71-.506-3.73-1.52-1.02-1.013-1.529-2.26-1.529-3.74 0-1.48.51-2.726 1.53-3.74 1.02-1.013 2.264-1.52 3.729-1.52 1.468 0 2.713.507 3.741 1.52 1.027 1.014 1.539 2.26 1.539 3.74 0 1.48-.512 2.727-1.539 3.74zm8.5-.32c.507 0 .898-.12 1.171-.36.272-.238.41-.58.41-1.02 0-.413-.138-.736-.41-.969-.273-.235-.664-.35-1.17-.35h-3.2v2.7l3.199-.001zm-.38-6.86h-2.82v2.62h2.82c1.014 0 1.519-.446 1.519-1.34 0-.852-.505-1.28-1.519-1.28zm2.14 3.3c1.027.427 1.54 1.2 1.54 2.32 0 .827-.276 1.504-.829 2.031-.555.527-1.344.79-2.37.79h-5v-10h4.6c1 0 1.771.25 2.32.75.546.5.82 1.156.82 1.97 0 .96-.36 1.673-1.08 2.14" fill="#515455"/><path d="M108.037 357.816l-46.014 46.016-16.232-16.233 46.013-46.015 16.233 16.232z" fill="#53A4E0"/><path d="M67.577 373.419l1.106-1.106 8.318 8.319-9.482 9.483-8.32-8.319 1.105-1.105 7.275 7.273 3.089-3.09-7.273-7.274 1.092-1.092 7.273 7.273 3.09-3.089-7.273-7.273zm15.273 1.676c-1.262 1.26-2.717 1.881-4.369 1.872-1.652-.012-3.082-.626-4.296-1.836-1.212-1.214-1.825-2.646-1.836-4.298-.012-1.652.612-3.106 1.872-4.366a5.861 5.861 0 012.644-1.55 5.552 5.552 0 012.966-.018l-.406 1.52a3.78 3.78 0 00-2.162-.035c-.749.2-1.43.598-1.972 1.152-.96.959-1.432 2.05-1.422 3.273.014 1.226.483 2.302 1.41 3.228.918.919 1.989 1.383 3.214 1.396 1.224.011 2.314-.461 3.274-1.421.57-.57.954-1.228 1.152-1.972.198-.745.19-1.461-.023-2.15l1.51-.417a5.516 5.516 0 01-.006 2.967 5.898 5.898 0 01-1.55 2.655zm-1.31-15.64l5.193-5.194.987.988 4.303 10.362-1.154 1.153-4.265-10.279-4.017 4.016-1.047-1.046" fill="#FCFCFC"/><path d="M221.08 357.816l-46.013 46.016-16.234-16.233 46.016-46.015 16.231 16.232" fill="#EA1E26"/><path d="M177.13 388.63l-.989-.989 5.051-5.05.988.988-5.05 5.051zm-2.414-2.414l-.985-.985 5.05-5.051.986.985-5.051 5.051zm11.004-1.259l-.904-.904-.059-5.928c0-1.57-.281-2.636-.844-3.197-.466-.468-.974-.69-1.521-.665-.545.024-1.025.24-1.437.653-.784.783-.982 1.727-.595 2.828l-1.472.381c-.277-.801-.324-1.572-.139-2.313.187-.74.562-1.39 1.124-1.953.698-.696 1.534-1.075 2.507-1.13.976-.056 1.85.304 2.628 1.082.84.84 1.257 2.249 1.259 4.229l-.014 4.243 3.768-3.767 1.07 1.07-5.371 5.371zm9.65-14.878l1.034 1.033-1.01 1.01 1.58 1.582-1.106 1.105-1.58-1.581-4.243 4.243-1.033-1.035-2.721-8.687 1.188-1.188 2.721 8.687 3.053-3.053-2.352-2.354 1.106-1.105 2.352 2.353 1.01-1.01h.001zm9.28-6.119a1.77 1.77 0 00.547-1.33 1.893 1.893 0 00-.581-1.345 1.839 1.839 0 00-1.339-.564 1.806 1.806 0 00-.719.131 1.794 1.794 0 00-.605.409l-2.484 2.484 2.698 2.699 2.483-2.484zm-6.513-5.99l-2.222 2.222 2.544 2.543 2.222-2.223a1.663 1.663 0 00.511-1.245 1.767 1.767 0 00-.547-1.262 1.776 1.776 0 00-1.258-.534 1.666 1.666 0 00-1.25.498v.001zm4.398 1.545a3.143 3.143 0 011.694-.124c.567.113 1.072.394 1.515.837.665.665.99 1.457.975 2.377-.016.919-.362 1.715-1.034 2.388l-3.589 3.59-8.32-8.32 3.328-3.327c.65-.65 1.42-.981 2.307-.999.886-.016 1.652.298 2.292.939.738.737 1.016 1.617.832 2.639" fill="#FCFCFC"/><path d="M145.719 359.261l-46.016 46.016-16.232-16.233 46.014-46.016 16.234 16.233" fill="#3270BF"/><path d="M108.299 386.619l3.73-3.732-6.238-6.24-3.102 3.102 3.339 3.339c1.26 1.26 2.017 2.437 2.27 3.53l.001.001zm4.837-4.838l.89-.89 2.638 2.637-1.105 1.107-1.592-1.594-5.491 5.49 1.593 1.593-1.105 1.105-2.639-2.638.726-.726c-.128-1.156-.844-2.388-2.151-3.694l-4.35-4.351 5.311-5.313 7.275 7.274zm9.256-7.166l-1.355 1.356-7.582-.406 3.993 3.995-1.104 1.104-8.32-8.319 1.105-1.105 3.756 3.756-.286-7.227 1.356-1.354.369 7.713 8.068.487zm-2.9-13.738l.95-.95 8.32 8.318-1.094 1.094-7.13-7.13-1.247 2.294-1.224-.679 1.425-2.947z" fill="#FCFCFC"/><path d="M183.4 357.816l-46.015 46.016-16.233-16.233 46.015-46.015 16.233 16.232z" fill="#3270BF"/><path d="M145.925 384.979l3.731-3.73-6.24-6.241-3.101 3.103 3.34 3.34c1.258 1.258 2.017 2.436 2.27 3.528zm4.836-4.836l.892-.892 2.639 2.638-1.105 1.106-1.594-1.592-5.49 5.49 1.592 1.592-1.104 1.104-2.638-2.637.724-.724c-.126-1.157-.842-2.39-2.15-3.697l-4.351-4.348 5.312-5.314 7.273 7.274zm9.258-7.167l-1.355 1.356-7.583-.405 3.995 3.993-1.107 1.107-8.318-8.32 1.105-1.106 3.757 3.756-.286-7.225 1.353-1.355.37 7.714 8.069.485zm3.494-3.493l-.904-.903-.058-5.93c-.002-1.569-.283-2.634-.846-3.197-.466-.468-.973-.689-1.52-.666-.546.025-1.026.242-1.438.654-.784.784-.982 1.728-.595 2.828l-1.47.382c-.28-.8-.325-1.571-.14-2.312a4.149 4.149 0 011.125-1.955 3.725 3.725 0 012.506-1.13c.974-.055 1.85.305 2.627 1.082.839.84 1.259 2.25 1.259 4.23l-.012 4.242 3.766-3.767 1.071 1.07-5.37 5.372" fill="#FCFCFC"/><path d="M70.357 357.816l-46.016 46.016-16.233-16.233 46.016-46.015 16.233 16.232z" fill="#53A4E0"/><path d="M31.488 371.825l1.105-1.104 8.32 8.318-9.484 9.484-8.318-8.32 1.105-1.106 7.273 7.274 3.091-3.09-7.275-7.273 1.094-1.092 7.273 7.273 3.09-3.09-7.274-7.274zm15.272 1.676c-1.26 1.262-2.716 1.884-4.367 1.874-1.652-.012-3.085-.624-4.297-1.836-1.212-1.214-1.824-2.646-1.836-4.298-.012-1.652.612-3.106 1.873-4.366a5.862 5.862 0 012.644-1.551 5.561 5.561 0 012.966-.017l-.406 1.52a3.798 3.798 0 00-2.162-.036 4.336 4.336 0 00-1.974 1.153c-.958.959-1.43 2.05-1.42 3.275.014 1.224.482 2.298 1.41 3.225.918.92 1.989 1.384 3.214 1.397 1.224.011 2.314-.461 3.274-1.421a4.334 4.334 0 001.152-1.973c.197-.744.19-1.46-.024-2.15l1.509-.416c.27.967.268 1.955-.005 2.966a5.87 5.87 0 01-1.551 2.654zm.83-17.778l.951-.95 8.319 8.319-1.093 1.093-7.131-7.13-1.247 2.294-1.224-.678 1.426-2.948" fill="#FCFCFC"/><path d="M15.303 480.385c0-.74.5-1.26 1.198-1.26.7 0 1.18.52 1.18 1.26 0 .72-.46 1.26-1.2 1.26-.7 0-1.178-.54-1.178-1.26zm4.138 0c0-.74.5-1.26 1.199-1.26.701 0 1.18.52 1.18 1.26 0 .72-.46 1.26-1.199 1.26-.701 0-1.18-.54-1.18-1.26zm4.139 0c0-.74.5-1.26 1.2-1.26s1.18.52 1.18 1.26c0 .72-.46 1.26-1.2 1.26-.7 0-1.18-.54-1.18-1.26z" fill="#53A4E0"/><path d="M90.439 480.385c0-.741.5-1.26 1.198-1.26.702 0 1.18.519 1.18 1.26 0 .719-.46 1.259-1.198 1.259-.702 0-1.18-.54-1.18-1.259zm4.14 0c0-.741.5-1.26 1.198-1.26.7 0 1.18.519 1.18 1.26 0 .719-.46 1.259-1.2 1.259-.7 0-1.178-.54-1.178-1.259zm4.138 0c0-.741.5-1.26 1.199-1.26.701 0 1.18.519 1.18 1.26 0 .719-.46 1.259-1.199 1.259-.701 0-1.18-.54-1.18-1.259" fill="#3270BF"/><path d="M160.087 640.673c-.739 0-1.26-.5-1.26-1.2s.521-1.178 1.26-1.178c.718 0 1.261.458 1.261 1.198 0 .702-.543 1.18-1.261 1.18zm0-4.14c-.739 0-1.26-.5-1.26-1.198 0-.7.521-1.18 1.26-1.18.718 0 1.261.46 1.261 1.2 0 .7-.543 1.178-1.261 1.178zm0-4.138c-.739 0-1.26-.5-1.26-1.2s.521-1.179 1.26-1.179c.718 0 1.261.459 1.261 1.199 0 .701-.543 1.18-1.261 1.18" fill="#53A4E0"/><path d="M160.087 579.608c-.739 0-1.26-.5-1.26-1.199 0-.701.521-1.18 1.26-1.18.72 0 1.261.46 1.261 1.199 0 .701-.541 1.18-1.261 1.18zm0-4.138c-.739 0-1.26-.5-1.26-1.2s.521-1.18 1.26-1.18c.72 0 1.261.46 1.261 1.2 0 .7-.541 1.18-1.261 1.18zm0-4.14c-.739 0-1.26-.5-1.26-1.2s.521-1.18 1.26-1.18c.72 0 1.261.46 1.261 1.2 0 .7-.541 1.18-1.261 1.18z" fill="#3270BF"/><path d="M349.38 76.735V65.61l-7.73 11.124h-2.107V60.34h2.694v11.125l7.728-11.125h2.11v16.395h-2.695zm16.63-16.395v2.576h-4.614v13.819h-2.695v-13.82h-4.636V60.34h11.946-.001zm14.357 16.395h-3.21l-6.464-7.8v7.8H368V60.34h2.693v7.355l6.23-7.355h3.209l-6.628 7.987 6.863 8.408zm.116-5.902v-2.436h8.666v2.436h-8.666zm19.698 6.207c-2.468 0-4.513-.816-6.137-2.448-1.624-1.632-2.435-3.65-2.435-6.055 0-2.404.811-4.422 2.435-6.054 1.624-1.631 3.67-2.448 6.137-2.448 1.483 0 2.854.352 4.111 1.054 1.256.703 2.236 1.656 2.939 2.858l-2.342 1.358a4.838 4.838 0 00-1.909-1.932c-.836-.476-1.768-.714-2.799-.714-1.749 0-3.165.554-4.252 1.662-1.084 1.11-1.628 2.515-1.628 4.216 0 1.703.544 3.107 1.628 4.216 1.087 1.108 2.503 1.663 4.252 1.663 1.031 0 1.967-.237 2.811-.715.843-.476 1.475-1.118 1.897-1.932l2.342 1.336c-.687 1.202-1.659 2.159-2.916 2.868-1.256.71-2.635 1.067-4.134 1.067zm12.706-4.3c1.117 1.119 2.494 1.676 4.134 1.676 1.639 0 3.016-.557 4.134-1.675 1.116-1.116 1.674-2.517 1.674-4.204 0-1.686-.558-3.088-1.674-4.204-1.118-1.116-2.495-1.674-4.134-1.674-1.64 0-3.017.558-4.134 1.674-1.116 1.116-1.675 2.518-1.675 4.204 0 1.687.559 3.088 1.675 4.204zm10.165 1.828c-1.647 1.648-3.657 2.472-6.03 2.472-2.375 0-4.386-.824-6.033-2.472-1.646-1.647-2.469-3.657-2.469-6.03 0-2.374.823-4.385 2.47-6.031 1.646-1.647 3.657-2.472 6.031-2.472 2.374 0 4.384.825 6.031 2.472 1.647 1.646 2.47 3.657 2.47 6.03 0 2.374-.823 4.384-2.47 6.03zm8.478-1.827c1.117 1.118 2.494 1.675 4.134 1.675 1.639 0 3.017-.557 4.135-1.675 1.114-1.116 1.673-2.517 1.673-4.204 0-1.686-.559-3.088-1.673-4.204-1.118-1.116-2.496-1.674-4.135-1.674-1.64 0-3.017.558-4.135 1.674-1.116 1.116-1.674 2.518-1.674 4.204 0 1.687.558 3.088 1.674 4.204h.001zm10.165 1.827c-1.647 1.648-3.658 2.472-6.031 2.472-2.373 0-4.384-.824-6.032-2.472-1.647-1.647-2.47-3.657-2.47-6.03 0-2.374.823-4.385 2.47-6.031 1.648-1.647 3.659-2.472 6.032-2.472s4.384.825 6.03 2.472c1.649 1.646 2.473 3.657 2.473 6.03 0 2.374-.824 4.384-2.472 6.03zm-378.92 2.167V65.61l-7.73 11.124h-2.108V60.34h2.695v11.125L63.36 60.34h2.11v16.395h-2.695zm12.998-2.53c.626 0 1.152-.222 1.583-.668.428-.444.643-.986.643-1.626 0-.64-.215-1.184-.643-1.628a2.115 2.115 0 00-1.583-.668h-4.332v4.59h4.332zm-.514-11.336h-3.818v4.31h3.818c.593 0 1.093-.207 1.498-.62.407-.415.61-.926.61-1.535 0-.608-.203-1.12-.61-1.533a2.017 2.017 0 00-1.498-.622zm3.138 5.364c.719.375 1.28.89 1.686 1.546.406.656.609 1.413.609 2.272 0 1.342-.476 2.458-1.428 3.349-.953.89-2.116 1.335-3.49 1.335h-7.027V60.34h6.512c1.342 0 2.478.433 3.408 1.3.928.867 1.393 1.948 1.393 3.244 0 1.42-.555 2.537-1.663 3.35v-.001zm17.004 8.502h-3.21l-6.463-7.8v7.8h-2.695V60.34h2.695v7.355l6.23-7.355h3.209l-6.63 7.987 6.864 8.408zm.116-5.902v-2.436h8.667v2.436h-8.667zm24.007 3.326h1.757v5.714h-2.694v-3.138h-11.124V60.34h2.693v13.819h6.675v-13.82h2.693v13.82zm12.741-13.82h2.718l-5.082 12.18c-1.25 2.982-3.272 4.388-6.066 4.216v-2.506c.92.094 1.666-.046 2.237-.422.568-.375 1.025-1 1.37-1.874l-5.458-11.593h2.716l3.983 8.643 3.582-8.643" fill="#515455"/><path d="M352.996 142.615h57.783V84.832h-57.783v57.783zm58.116.666h-58.45a.342.342 0 01-.235-.097.337.337 0 01-.098-.236v-58.45c0-.185.15-.333.334-.333h58.449c.184 0 .333.148.333.334v58.449a.333.333 0 01-.333.333z" fill="#060707"/><path d="M348.436 142.615h3.893V104.5h-3.893v38.115zm4.227.666h-4.56a.332.332 0 01-.334-.333v-38.781c0-.184.15-.334.334-.334h4.56c.184 0 .333.15.333.334v38.781c0 .184-.15.333-.333.333z" fill="#060707"/><path d="M270.08 118.873l77.69 14.715v-18.13h-77.69v3.415zm78.023 15.451l-.063-.005-78.355-14.842a.333.333 0 01-.272-.328v-4.024c0-.184.151-.333.334-.333h78.356c.184 0 .333.15.333.333v18.866l-.121.257-.212.076zm-116.36-37.14h91.25V69.928H221.43l10.313 27.256zm91.584.667h-91.815a.335.335 0 01-.312-.216l-10.564-27.922.036-.308.275-.144h102.38c.184 0 .333.15.333.334v27.922c0 .184-.15.334-.333.334" fill="#060707"/><path d="M238.348 102.717h73.576v-4.866h-73.576v4.866zm73.91.667h-74.243a.332.332 0 01-.334-.333v-5.534c0-.184.15-.333.334-.333h74.242c.184 0 .334.15.334.333v5.534c0 .184-.15.333-.334.333" fill="#060707"/><path d="M241.323 103.384a.332.332 0 01-.334-.333v-5.534a.332.332 0 01.334-.333.332.332 0 01.333.334v5.533c0 .184-.15.333-.333.333zm67.601 0a.33.33 0 01-.235-.098.33.33 0 01-.098-.235v-5.534a.332.332 0 01.333-.333.332.332 0 01.334.333v5.534c0 .184-.15.333-.334.333zm-33.788 12.075c-2.357 0-4.213-.688-5.513-2.043-1.694-1.764-1.938-4.12-1.97-5h-5.704a.342.342 0 01-.235-.097.344.344 0 01-.073-.108.351.351 0 01-.025-.128v-5.032a.334.334 0 01.667 0v4.698h5.702l.24.102.094.244c-.002.029-.091 2.909 1.789 4.864 1.17 1.216 2.861 1.833 5.028 1.833 1.541 0 2.777-.479 3.67-1.421 1.827-1.926 1.677-5.18 1.674-5.214l.092-.246.241-.104h5.706l.001-4.756a.334.334 0 01.667 0l-.002 5.089c0 .184-.15.333-.333.333h-5.7c-.008.95-.188 3.591-1.857 5.354-1.027 1.082-2.426 1.632-4.159 1.632zm81.827 2.736h9.762v-7.808h-9.762v7.808zm10.096.666h-10.43a.333.333 0 01-.333-.333v-8.475c0-.184.15-.333.333-.333h10.43c.184 0 .333.15.333.333v8.475c0 .184-.15.333-.333.333z" fill="#060707"/><path d="M361.844 112.137a1.946 1.946 0 100 3.892 1.946 1.946 0 000-3.892zm0 4.559a2.616 2.616 0 01-2.613-2.613 2.612 2.612 0 112.613 2.613zm-195.665 624.54h111.486V544.857H166.18l-.001 196.379zm111.82.667H165.845a.338.338 0 01-.236-.098.337.337 0 01-.097-.236V544.524c0-.184.15-.333.333-.333H278c.184 0 .333.149.333.333v197.045c0 .183-.15.334-.333.334" fill="#060707"/><path d="M166.179 544.19h111.486v-5.88H166.18l-.001 5.88zm111.82.667H165.845a.33.33 0 01-.235-.098.33.33 0 01-.098-.235v-6.548c0-.183.15-.333.333-.333H278c.184 0 .333.15.333.333v6.548c0 .183-.15.333-.333.333" fill="#060707"/><path d="M165.845 538.31a.337.337 0 01-.21-.075.335.335 0 01-.069-.44.323.323 0 01.091-.093.323.323 0 01.119-.051l30.135-6.366 112.9-.008a.335.335 0 01.328.3.334.334 0 01-.26.36l-30.812 6.367a.341.341 0 01-.251-.049.332.332 0 01-.096-.462.334.334 0 01.211-.144l27.62-5.705H195.979l-30.066 6.359-.068.006" fill="#060707"/><path d="M277.999 544.857a.331.331 0 01-.328-.395.334.334 0 01.258-.265l30.548-6.49v-6.096a.334.334 0 01.667 0v6.365c0 .159-.11.293-.264.327l-30.812 6.546-.07.008" fill="#060707"/><path d="M277.999 741.903a.331.331 0 01-.332-.276.334.334 0 01.22-.372l30.59-10.882V537.976a.336.336 0 01.333-.316.333.333 0 01.334.316v192.633a.334.334 0 01-.06.193.334.334 0 01-.161.121l-30.812 10.96-.112.02zM82.044 131.725H33.268a.335.335 0 01-.333-.333.332.332 0 01.333-.333h48.776a.331.331 0 01.333.333.335.335 0 01-.333.333zm44.232 13.925h56.343V89.308h-56.343v56.342zm56.676.667h-57.01a.333.333 0 01-.333-.333v-57.01c0-.183.15-.333.334-.333h57.009c.184 0 .333.15.333.334v57.009a.333.333 0 01-.333.333z" fill="#060707"/><path d="M130.848 120.356h9.335v-5.94h-9.335v5.94zm9.668.667h-10.001a.332.332 0 01-.334-.334v-6.606c0-.184.15-.334.334-.334h10.001c.183 0 .333.15.333.334v6.606c0 .184-.15.334-.333.334z" fill="#060707"/><path d="M135.083 115.997a1.303 1.303 0 00-.93.386 1.321 1.321 0 00-.385.931 1.303 1.303 0 00.386.93 1.321 1.321 0 00.931.385 1.313 1.313 0 001.315-1.317 1.313 1.313 0 00-1.317-1.315zm0 3.298a1.985 1.985 0 01-1.982-1.983c0-1.092.89-1.981 1.982-1.981 1.093 0 1.982.889 1.982 1.981a1.985 1.985 0 01-1.982 1.983zm-12.493 24.126h3.02v-51.19h-3.02v51.19zm3.353.667h-3.687a.33.33 0 01-.235-.098.33.33 0 01-.098-.235V91.897c0-.184.15-.333.333-.333h3.687c.184 0 .333.15.333.333v51.858c0 .185-.15.333-.333.333z" fill="#060707"/><path d="M118.164 128.657l3.759 10.695V96.079l-3.759 11.658v20.92zm4.092 12.983a.336.336 0 01-.315-.223l-4.425-12.593-.019-.11v-21.03l.016-.101 4.426-13.727a.333.333 0 01.65.103v47.348a.332.332 0 01-.277.328l-.056.005z" fill="#060707"/><path d="M102.612 129.081l-.27-.138c-.02-.028-2.103-2.823-7.48-3.207-5.765-.412-7.76-5.515-7.78-5.567l-.022-.117v-6.556c0-6.013 7.045-6.144 7.117-6.145h23.654a.33.33 0 01.235.098.33.33 0 010 .471.333.333 0 01-.235.097H94.18c-.261.003-6.453.128-6.453 5.479v6.492c.228.556 2.1 4.72 7.182 5.083 5.074.362 7.355 2.732 7.864 3.344l15.056-.035h.002a.34.34 0 01.308.205.333.333 0 01-.307.462l-15.219.034h-.001" fill="#060707"/><path d="M117.228 118.55H87.393a.332.332 0 01-.334-.333.332.332 0 01.334-.334h29.835a.33.33 0 01.235.098.33.33 0 010 .471.333.333 0 01-.235.097" fill="#060707"/><path d="M109.237 120.232a.33.33 0 01-.235-.098.33.33 0 01-.098-.235v-3.443a.334.334 0 01.667 0v3.443a.334.334 0 01-.334.333zm5.535 5.301h2.725v-5.301h-2.725v5.301zm3.059.667h-3.392a.332.332 0 01-.334-.333v-5.968c0-.184.15-.334.334-.334h3.392c.184 0 .333.15.333.334v5.968c0 .184-.15.333-.333.333zM16.05 110.456c3.351 1.79 7.127 3.29 10.978 3.83v-3.83H16.05zm-.507 23.3h11.485v-18.797c-4.043-.55-7.999-2.139-11.485-4.022v22.819zm12.152 0h5.24v-5.912c0-.183.148-.332.33-.333l48.446-.335v-24.99H4.409c1.467 1.34 5.448 4.782 10.58 7.686l.22-.083h12.152c.184 0 .334.15.334.334v23.633zm5.906 0h48.11v-5.913l-48.11.332v5.581zm-5.906 3.375h5.24v-2.708h-5.24v2.708zm5.573.666h-5.907a.333.333 0 01-.333-.333v-3.041H15.209a.338.338 0 01-.333-.334v-23.518c-6.675-3.738-11.47-8.407-11.545-8.48a.333.333 0 01.235-.571h78.478c.184 0 .333.15.333.333v32.236a.334.334 0 01-.333.334H33.601v3.041a.333.333 0 01-.333.333" fill="#060707"/><path d="M82.044 118.55H27.361a.335.335 0 01-.333-.334c0-.184.15-.333.333-.333h54.683a.331.331 0 01.333.333.335.335 0 01-.333.333" fill="#060707"/><path d="M82.377 136.361h1.006v-32.008h-1.006v32.008zm1.339.667h-1.672a.331.331 0 01-.333-.333V104.02c0-.184.149-.333.333-.333h1.672c.184 0 .333.149.333.333v32.675a.332.332 0 01-.333.333" fill="#060707"/><path d="M87.393 114.836l-.204-.07-3.677-2.858a.335.335 0 01-.118-.352.337.337 0 01.41-.234.337.337 0 01.116.059l3.677 2.859a.334.334 0 01.118.351.327.327 0 01-.059.116l-.263.129zm-3.506 9.221l-.263-.129a.327.327 0 01-.027-.369.334.334 0 01.086-.098l3.676-2.858a.32.32 0 01.116-.059.318.318 0 01.13-.01.32.32 0 01.222.127.337.337 0 01.068.246.334.334 0 01-.127.221l-3.677 2.859-.204.07" fill="#060707"/><path fill-rule="evenodd" clip-rule="evenodd" d="M166.077 138.787V125.81h1.994l9.256 6.549v7.028l-9.018-6.259v5.658h-2.232v.001zm-12.061-13.544l9.205 6.229v-5.661h2.238v12.976h-2.048l-9.395-6.51v-7.034z" fill="#838687"/><path fill-rule="evenodd" clip-rule="evenodd" d="M165.739 118.11c1.794 0 3.241 1.463 3.241 3.26a3.25 3.25 0 01-3.241 3.242 3.255 3.255 0 01-3.251-3.243 3.253 3.253 0 01.951-2.302 3.253 3.253 0 012.299-.958" fill="#EA1E26"/><path fill-rule="evenodd" clip-rule="evenodd" d="M392.665 135.905v-12.977h1.992l9.256 6.55v7.027l-9.014-6.257v5.657h-2.234zm-12.062-13.544l9.205 6.228v-5.661h2.237v12.977H390l-9.396-6.51v-7.034" fill="#838687"/><path fill-rule="evenodd" clip-rule="evenodd" d="M392.325 115.227a3.25 3.25 0 013.243 3.261 3.244 3.244 0 01-5.536 2.291 3.251 3.251 0 01-.956-2.291 3.26 3.26 0 013.25-3.261" fill="#EA1E26"/><path fill-rule="evenodd" clip-rule="evenodd" d="M257.496 734.456V721.48h1.993l9.258 6.55v7.027l-9.018-6.258v5.657h-2.233zm-12.061-13.544l9.205 6.228v-5.66h2.237v12.976h-2.048l-9.394-6.51v-7.034z" fill="#838687"/><path fill-rule="evenodd" clip-rule="evenodd" d="M257.157 713.779a3.252 3.252 0 010 6.502 3.251 3.251 0 01-3.249-3.242 3.256 3.256 0 013.25-3.26" fill="#EA1E26"/><path d="M195.979 531.944l-.032-.001a.336.336 0 01-.3-.364c.009-.088.948-8.754 8.689-8.754 7.75 0 8.455 8.675 8.46 8.762a.335.335 0 01-.31.356c-.178.026-.343-.126-.354-.308-.025-.332-.67-8.143-7.796-8.143-7.135 0-7.992 7.819-8.025 8.15a.33.33 0 01-.108.215.331.331 0 01-.224.087" fill="#060707"/><path d="M203.593 531.277h1.724v-5.036h-1.724v5.036zm2.058.667h-2.391a.33.33 0 01-.235-.098.33.33 0 01-.098-.235v-5.703c0-.184.15-.333.333-.333h2.39c.185 0 .334.149.334.333v5.703c0 .184-.15.333-.333.333zm81.662 0l-.032-.001a.336.336 0 01-.3-.364c.01-.088.948-8.754 8.691-8.754 7.75 0 8.453 8.675 8.459 8.762a.335.335 0 01-.31.356c-.202.026-.344-.126-.354-.308-.026-.332-.67-8.143-7.795-8.143-7.136 0-7.993 7.819-8.027 8.15a.33.33 0 01-.108.215.331.331 0 01-.224.087" fill="#060707"/><path d="M294.93 531.277h1.722v-5.036h-1.723l.001 5.036zm2.055.667h-2.389a.33.33 0 01-.235-.098.33.33 0 01-.098-.235v-5.703c0-.184.15-.333.333-.333h2.39c.183 0 .333.149.333.333v5.703c0 .184-.15.333-.334.333z" fill="#060707"/><path d="M205.65 597.701h28.538l-14.27-24.746-14.268 24.746z" fill="#DFDB1F"/><path d="M206.228 597.368h27.383l-13.692-23.745-13.691 23.745zm27.96.667h-28.537l-.29-.167v-.333l14.27-24.747c.118-.205.457-.205.577 0l14.268 24.747v.333l-.288.167zm28.933-9.685h-9.213a.334.334 0 010-.667l9.213.001c.183 0 .334.15.334.333a.336.336 0 01-.334.334v-.001zm0 109.989h-9.213a.334.334 0 010-.667h9.213c.183 0 .334.15.334.333a.335.335 0 01-.334.334" fill="#060707"/><path d="M254.936 411.09v87.06h-20.207v-87.06h20.207" fill="#673388"/><path d="M240.616 479.365h4.523v-3.241c0-.6-.222-1.112-.667-1.535a2.249 2.249 0 00-1.603-.632c-.624 0-1.156.211-1.594.632a2.063 2.063 0 00-.659 1.535v3.241zm10.625-5.581l-4.645 2.721v2.86h4.645v1.612h-12.133v-4.853c0-1.04.367-1.93 1.1-2.67a3.613 3.613 0 012.661-1.109c.786 0 1.502.235 2.15.702a3.769 3.769 0 011.369 1.812l4.853-2.86v1.785zm.226-7.125c0 1.133-.267 2.1-.798 2.904a4.218 4.218 0 01-2.184 1.689l-.797-1.387c1.467-.473 2.201-1.554 2.201-3.241 0-.832-.17-1.467-.512-1.907-.34-.438-.794-.658-1.36-.658-.577 0-1.01.22-1.3.658-.289.44-.594 1.174-.918 2.202-.163.508-.292.896-.39 1.162-.1.266-.249.598-.45.996-.204.398-.411.696-.626.894a3.14 3.14 0 01-.84.528 2.84 2.84 0 01-1.178.233c-1.052 0-1.887-.37-2.506-1.11-.618-.738-.926-1.64-.926-2.703 0-.959.242-1.794.728-2.504a4.53 4.53 0 011.924-1.604l.78 1.352c-1.248.521-1.872 1.438-1.872 2.756 0 .66.161 1.19.485 1.594.323.404.763.607 1.317.607.532 0 .936-.19 1.214-.572.277-.381.565-1.04.866-1.975.104-.336.179-.573.226-.712a15.762 15.762 0 01.52-1.299c.068-.14.168-.326.293-.563.096-.193.219-.37.365-.528.116-.116.258-.252.424-.408.168-.156.339-.268.512-.339.174-.07.372-.13.598-.183.225-.05.465-.076.72-.076 1.062 0 1.909.387 2.54 1.16.629.775.944 1.787.944 3.034zm-4.819-5.909h-1.457v-6.329h1.457V460.75zm.78-17.318h1.508v1.473h2.305v1.612h-2.305v6.188h-1.508l-8.32-4.35v-1.734l8.32 4.351v-4.455h-3.432v-1.612h3.432v-1.473zm2.496-5.216c0-.775-.181-1.396-.547-1.863-.362-.469-.886-.704-1.569-.704-.67 0-1.185.235-1.55.704-.365.467-.546 1.088-.546 1.863 0 .761.181 1.377.545 1.845.366.468.882.702 1.551.702.683 0 1.207-.234 1.57-.702.365-.468.546-1.084.546-1.845zm-9.499 0c0 .612.162 1.124.486 1.535.324.409.802.613 1.438.613.614 0 1.09-.207 1.43-.623.341-.416.512-.925.512-1.525 0-.601-.171-1.11-.512-1.525-.34-.416-.816-.624-1.43-.624-.636 0-1.114.201-1.438.606-.324.406-.486.918-.486 1.543zm4.542-2.27a3.548 3.548 0 011.213-1.387 3.071 3.071 0 011.733-.503c1.11 0 1.979.387 2.61 1.161.629.774.944 1.774.944 2.999 0 1.212-.315 2.207-.944 2.98-.631.776-1.5 1.163-2.61 1.163a3.071 3.071 0 01-1.733-.503 3.555 3.555 0 01-1.213-1.387c-.624.994-1.508 1.491-2.652 1.491-1.098 0-1.944-.368-2.54-1.1-.595-.735-.892-1.615-.892-2.644 0-1.04.297-1.927.892-2.661.596-.734 1.442-1.1 2.54-1.1 1.144 0 2.028.497 2.652 1.49v.001zm-1.127-7.142c0-1.145.339-2.112 1.015-2.904.674-.792 1.609-1.188 2.798-1.188 1.179 0 2.108.405 2.791 1.213.683.81 1.023 1.792 1.023 2.947 0 .925-.223 1.752-.667 2.48-.445.728-1.09 1.235-1.933 1.524l-.782-1.37c.591-.16 1.039-.473 1.344-.934.307-.463.46-1.03.46-1.7 0-.763-.197-1.38-.589-1.853-.392-.475-.943-.712-1.647-.712-.705 0-1.256.237-1.656.712-.398.473-.597 1.08-.597 1.818v3.432l-6.292-.45v-6.638h1.508v5.182l3.224.209v-1.768" fill="#FCFCFC"/><path d="M287.272 429.527v67.176h-20.207v-67.176h20.207z" fill="#EA1E26"/><path d="M279.99 483.015h-1.44v-7.368h1.44v7.368zm-3.52 0h-1.44v-7.368h1.44v7.368zm7.107-8.945h-1.317l-4.368-4.28c-1.145-1.146-2.127-1.717-2.947-1.717-.682 0-1.213.208-1.594.623-.382.417-.572.925-.572 1.527 0 1.142.542 1.974 1.629 2.494l-.797 1.354c-.787-.382-1.382-.911-1.786-1.587a4.28 4.28 0 01-.606-2.244c0-1.017.334-1.901 1.005-2.653.67-.751 1.572-1.126 2.704-1.126 1.224 0 2.559.723 4.004 2.167l3.085 3.103v-5.495h1.56v7.835-.001zm-3.813-17.887h1.508v1.472h2.305v1.612h-2.305v6.189h-1.508l-8.32-4.352v-1.733l8.32 4.35v-4.454h-3.432v-1.612h3.432v-1.472zm2.306-11.233c0-.543-.191-1-.573-1.369-.381-.37-.849-.554-1.404-.554-.544 0-1.006.186-1.386.561-.382.377-.572.83-.572 1.361v3.624h3.934l.001-3.623zm-9.118.38v3.243h3.71v-3.242c0-.508-.18-.936-.538-1.283a1.819 1.819 0 00-1.319-.52c-.506 0-.944.176-1.308.53a1.707 1.707 0 00-.545 1.273v-.001zm4.333-2.08a3.23 3.23 0 011.144-1.326c.496-.328 1.07-.493 1.715-.493.972 0 1.787.341 2.444 1.022.659.683.99 1.515.99 2.496v5.236h-12.134v-4.854c0-.947.317-1.75.953-2.41.635-.658 1.422-.988 2.356-.988 1.076 0 1.92.439 2.532 1.318" fill="#FCFCFC"/><path d="M369.08 194.113h-67.177v-20.208h67.177v20.208" fill="#EA1E26"/><path d="M316.265 182.74l1.359.652c-.315 1.075-.861 1.747-1.64 2.019-.779.272-1.753.081-2.924-.571-.919-.495-1.576-.69-1.975-.588-.397.103-.7.492-.904 1.168l-1.358-.633c.313-1.075.866-1.748 1.656-2.02.792-.271 1.754-.087 2.889.553.941.507 1.608.708 2 .607.393-.103.692-.499.897-1.187zm3.007 7.677v-1.376l4.473-4.562c1.195-1.196 1.792-2.222 1.792-3.079 0-.712-.217-1.268-.652-1.667-.434-.397-.966-.596-1.593-.596-1.196 0-2.064.567-2.608 1.702l-1.412-.834c.399-.82.95-1.442 1.656-1.865a4.5 4.5 0 012.345-.633c1.063 0 1.986.35 2.771 1.05.785.7 1.177 1.642 1.177 2.826 0 1.278-.754 2.673-2.262 4.182l-3.243 3.223h5.741v1.63h-8.185v-.001zm9.543 0v-1.376l4.473-4.562c1.195-1.196 1.792-2.222 1.792-3.079 0-.712-.217-1.268-.652-1.667-.435-.397-.965-.596-1.593-.596-1.196 0-2.064.567-2.608 1.702l-1.412-.834c.398-.82.95-1.442 1.656-1.865a4.5 4.5 0 012.345-.633c1.063 0 1.985.35 2.77 1.05.786.7 1.178 1.642 1.178 2.826 0 1.278-.755 2.673-2.263 4.182l-3.242 3.223H337v1.63h-8.185v-.001zm12.041-2.697c.555.857 1.347 1.285 2.373 1.285 1.026 0 1.819-.428 2.382-1.285.561-.857.841-2.07.841-3.64 0-1.57-.28-2.785-.841-3.65-.563-.862-1.356-1.293-2.382-1.293s-1.818.428-2.373 1.284c-.556.858-.833 2.078-.833 3.659 0 1.57.277 2.783.833 3.64zm5.976 1.141c-.857 1.195-2.059 1.792-3.603 1.792-1.545 0-2.748-.597-3.604-1.792-.857-1.196-1.285-2.789-1.285-4.781 0-1.992.428-3.585 1.285-4.78.856-1.196 2.059-1.793 3.604-1.793 1.544 0 2.746.597 3.603 1.793.857 1.195 1.287 2.788 1.287 4.78 0 1.992-.43 3.585-1.287 4.781zm13.455-.018c.568 0 1.044-.2 1.43-.598.386-.398.58-.888.58-1.468a1.985 1.985 0 00-.589-1.448 1.935 1.935 0 00-1.421-.597H356.5v4.11l3.787.001zm-.399-9.526h-3.387v3.876h3.387c.53 0 .977-.188 1.34-.561a1.91 1.91 0 00.543-1.377c0-.531-.184-.987-.552-1.367a1.785 1.785 0 00-1.331-.57v-.001zm2.173 4.527a3.394 3.394 0 011.386 1.196c.344.519.516 1.116.516 1.793 0 1.014-.356 1.864-1.068 2.554-.714.688-1.583 1.03-2.608 1.03h-5.47v-12.674h5.071c.99 0 1.83.332 2.517.996.688.664 1.032 1.484 1.032 2.461 0 1.124-.46 2.005-1.376 2.644" fill="#FCFCFC"/><path d="M433.03 784.993h-109.5v-37.941h109.5v37.941z" fill="#263D78"/><path d="M359.728 762.03c.568 0 1.044-.2 1.43-.598a2.037 2.037 0 00.58-1.465c0-.568-.197-1.051-.589-1.45a1.928 1.928 0 00-1.421-.598h-3.785v4.11l3.785.001zm-.399-9.525h-3.386v3.875h3.386c.531 0 .978-.187 1.34-.561.362-.374.543-.834.543-1.376 0-.531-.184-.987-.552-1.367a1.77 1.77 0 00-1.33-.57l-.001-.001zm2.174 4.527a3.37 3.37 0 011.385 1.196c.344.519.516 1.116.516 1.792 0 1.013-.356 1.865-1.068 2.553-.713.688-1.583 1.032-2.608 1.032h-5.47V750.93h5.071c.99 0 1.83.332 2.518.996.688.664 1.032 1.486 1.032 2.463 0 1.123-.46 2.004-1.376 2.644v-.001zm6.293 3.74c.935.947 2.097 1.421 3.485 1.421s2.55-.474 3.486-1.421c.934-.948 1.404-2.116 1.404-3.505 0-1.4-.47-2.574-1.404-3.52-.936-.948-2.098-1.423-3.486-1.423-1.388 0-2.55.475-3.485 1.423-.937.946-1.404 2.12-1.404 3.52 0 1.389.467 2.557 1.404 3.505zm8.148 1.15c-1.273 1.278-2.828 1.92-4.663 1.92-1.836 0-3.386-.642-4.653-1.92-1.27-1.28-1.903-2.831-1.903-4.655 0-1.835.634-3.388 1.903-4.663 1.267-1.273 2.817-1.91 4.653-1.91 1.835 0 3.39.637 4.663 1.91 1.273 1.275 1.91 2.828 1.91 4.663 0 1.824-.637 3.374-1.91 4.654v.001zm2.109 1.683v-1.521c.832.121 1.458-.112 1.874-.697.417-.584.625-1.675.625-3.268v-7.19h8.365v12.676h-1.682v-11.081h-4.999v5.595c0 1.134-.105 2.085-.317 2.853-.211.765-.512 1.341-.904 1.728a3.097 3.097 0 01-1.306.788c-.476.139-1.028.177-1.656.117zm19.539.236c-1.92 0-3.505-.634-4.753-1.901-1.251-1.268-1.875-2.825-1.875-4.673 0-1.847.624-3.404 1.875-4.672 1.248-1.267 2.833-1.9 4.753-1.9 1.159 0 2.224.277 3.196.833a6.006 6.006 0 012.272 2.244l-1.467.852a4.056 4.056 0 00-1.621-1.675 4.635 4.635 0 00-2.38-.625c-1.46 0-2.653.47-3.576 1.413-.924.942-1.385 2.119-1.385 3.53 0 1.401.461 2.572 1.385 3.513.923.943 2.116 1.413 3.576 1.413.87 0 1.663-.209 2.38-.625.719-.416 1.26-.97 1.621-1.656l1.467.833c-.532.942-1.285 1.692-2.263 2.254a6.333 6.333 0 01-3.205.842zm-53.817 11.589v.76c0 1.655-.567 3.027-1.702 4.12-1.134 1.093-2.638 1.64-4.509 1.64-1.932 0-3.528-.638-4.79-1.911-1.26-1.274-1.893-2.828-1.893-4.664 0-1.835.632-3.388 1.894-4.663 1.261-1.273 2.845-1.91 4.752-1.91 1.172 0 2.246.282 3.224.842.978.561 1.732 1.301 2.264 2.217l-1.448.852c-.363-.686-.91-1.241-1.64-1.656a4.79 4.79 0 00-2.416-.625c-1.45 0-2.639.475-3.568 1.423-.93.946-1.395 2.12-1.395 3.52 0 1.401.468 2.572 1.404 3.513.935.943 2.145 1.413 3.63 1.413 1.269 0 2.294-.31 3.078-.933a3.795 3.795 0 001.43-2.417h-4.653v-1.522h6.338v.001zm6.682 4.998c.906 0 1.667-.31 2.283-.933.615-.622.923-1.391.923-2.308 0-.918-.308-1.687-.923-2.31-.616-.621-1.377-.932-2.283-.932-.917 0-1.684.311-2.3.932-.616.623-.922 1.392-.922 2.31 0 .917.306 1.686.922 2.308.616.622 1.383.933 2.3.933zm.199-8.004c1.268 0 2.348.461 3.243 1.385.893.924 1.34 2.05 1.34 3.378 0 1.328-.447 2.453-1.34 3.377-.895.923-1.975 1.385-3.243 1.385-1.496 0-2.637-.597-3.421-1.793v1.557h-1.576v-12.676h1.576v5.179c.784-1.193 1.925-1.792 3.421-1.792zm8.311 7.696h5.886v1.593h-7.569v-12.676h7.479v1.595h-5.796v3.893h5.342v1.575h-5.342v4.02zm12.677-5.939h-2.408v4.906c0 .448.087.765.263.952.174.186.442.284.805.289.363.007.81-.003 1.34-.027v1.412c-1.376.182-2.385.07-3.024-.334-.64-.406-.96-1.168-.96-2.292v-4.906h-1.793v-1.522h1.793v-2.064l1.576-.471v2.535h2.408v1.522zm6.375-1.757c1.061 0 1.912.335 2.553 1.004.639.67.959 1.58.959 2.725v5.56h-1.575v-5.468c0-.736-.2-1.306-.599-1.712-.397-.404-.948-.606-1.648-.606-.784 0-1.417.245-1.901.733-.483.49-.724 1.241-.724 2.256v4.797h-1.575v-12.676h1.575v4.927c.64-1.027 1.617-1.54 2.935-1.54zm9.941 1.486c-.845 0-1.547.237-2.101.714-.556.477-.899 1.115-1.032 1.91h6.048c-.132-.857-.47-1.507-1.015-1.954a2.9 2.9 0 00-1.9-.67zm-3.133 4c.157.81.528 1.438 1.114 1.885.584.446 1.306.669 2.163.669 1.195 0 2.065-.44 2.608-1.323l1.34.762c-.881 1.364-2.208 2.046-3.983 2.046-1.437 0-2.605-.449-3.504-1.349-.9-.9-1.35-2.037-1.35-3.413 0-1.364.441-2.499 1.322-3.404.88-.907 2.023-1.359 3.423-1.359 1.328 0 2.41.468 3.25 1.403.84.936 1.258 2.062 1.258 3.377 0 .23-.017.465-.055.707h-7.586v-.001zm11.028-3.729c.517-1.124 1.46-1.685 2.824-1.685v1.648c-.772-.036-1.436.17-1.991.616-.556.447-.833 1.164-.833 2.156v4.797h-1.576v-9.054h1.576v1.522zm8.873-1.757c1.063 0 1.912.335 2.553 1.004.639.67.96 1.58.96 2.725v5.56h-1.576v-5.468c0-.736-.2-1.306-.597-1.712-.399-.404-.948-.606-1.65-.606-.783 0-1.417.245-1.9.733-.483.49-.723 1.241-.723 2.256v4.797h-1.576v-9.054h1.576v1.305c.638-1.027 1.616-1.54 2.933-1.54zm9.94 1.486c-.845 0-1.545.237-2.1.714-.556.477-.9 1.115-1.033 1.91h6.048c-.132-.857-.47-1.507-1.014-1.954a2.904 2.904 0 00-1.901-.67zm-3.133 4c.157.81.529 1.438 1.114 1.885.586.446 1.307.669 2.163.669 1.196 0 2.065-.44 2.608-1.323l1.34.762c-.881 1.364-2.208 2.046-3.983 2.046-1.437 0-2.605-.449-3.504-1.349-.9-.9-1.35-2.037-1.35-3.413 0-1.364.441-2.499 1.322-3.404.882-.907 2.023-1.359 3.423-1.359 1.328 0 2.41.468 3.25 1.403.84.936 1.26 2.062 1.26 3.377 0 .23-.02.465-.055.707h-7.588v-.001zm14.108-3.729h-2.408v4.906c0 .448.086.765.262.952.175.186.443.284.806.289.362.007.809-.003 1.34-.027v1.412c-1.376.182-2.386.07-3.024-.334-.64-.406-.96-1.168-.96-2.292v-4.906h-1.794v-1.522h1.794v-2.064l1.576-.471v2.535h2.408v1.522z" fill="#FCFCFC"/><path d="M290.543 212.915h-73.114V187.58h73.114v25.334" fill="#263D78"/><path d="M241.599 197.583c.378 0 .697-.134.954-.4.258-.266.387-.592.387-.979 0-.379-.13-.701-.392-.968a1.294 1.294 0 00-.95-.399h-2.526v2.746h2.527zm-.267-6.36h-2.26v2.586h2.26c.356 0 .653-.124.896-.374a1.271 1.271 0 00.361-.919c0-.355-.121-.659-.368-.912a1.197 1.197 0 00-.889-.381zm1.452 3.022c.387.186.695.451.924.798.23.346.345.746.345 1.197 0 .677-.238 1.245-.713 1.704-.476.46-1.056.69-1.741.69h-3.652v-8.463h3.385c.661 0 1.221.221 1.681.664.459.444.688.992.688 1.645 0 .75-.305 1.337-.917 1.765zm4.201 2.498c.624.632 1.4.948 2.327.948.928 0 1.704-.316 2.328-.948.625-.634.937-1.414.937-2.34 0-.935-.312-1.719-.937-2.352-.624-.634-1.4-.95-2.328-.95-.927 0-1.703.316-2.327.95-.625.633-.937 1.417-.937 2.352 0 .926.312 1.706.937 2.34zm5.44.766c-.849.855-1.888 1.282-3.113 1.282s-2.26-.427-3.107-1.282c-.846-.853-1.269-1.889-1.269-3.106 0-1.226.423-2.264 1.27-3.114.846-.85 1.88-1.276 3.106-1.276 1.225 0 2.264.426 3.113 1.276.851.85 1.276 1.888 1.276 3.114 0 1.217-.425 2.253-1.276 3.106zm1.41 1.126v-1.016c.556.08.973-.075 1.25-.466.279-.39.418-1.118.418-2.182v-4.8h5.585v8.464h-1.123v-7.4h-3.337v3.736c0 .757-.07 1.392-.212 1.904-.141.512-.343.897-.605 1.154-.241.246-.54.427-.87.527-.36.095-.736.122-1.106.079zm13.045.155c-1.281 0-2.339-.422-3.173-1.269-.835-.846-1.251-1.885-1.251-3.118 0-1.234.416-2.274 1.25-3.12.835-.847 1.893-1.27 3.174-1.27.775 0 1.485.186 2.135.556a4.017 4.017 0 011.517 1.5l-.979.568a2.735 2.735 0 00-1.082-1.118 3.106 3.106 0 00-1.591-.418c-.975 0-1.77.315-2.387.943-.617.63-.925 1.415-.925 2.359 0 .934.308 1.716.925 2.345.616.63 1.412.943 2.387.943a3.12 3.12 0 001.59-.416c.48-.279.84-.648 1.083-1.108l.979.557a3.976 3.976 0 01-1.51 1.505 4.234 4.234 0 01-2.142.562v-.001zm-34.38 10.871h3.93v1.064h-5.055v-8.464h4.993v1.064H232.5v2.6h3.567v1.052H232.5v2.684zm8.464-3.966h-1.608v3.277c0 .299.057.51.173.635.118.125.298.189.539.193.241.005.54-.001.896-.019v.944c-.92.122-1.593.047-2.02-.224-.427-.269-.641-.778-.641-1.529v-3.277h-1.198v-1.015h1.198v-1.379l1.053-.314v1.693h1.608v1.015zm4.256-1.172c.71 0 1.277.224 1.704.67.428.448.641 1.055.641 1.82v3.712h-1.05v-3.652c0-.49-.135-.872-.4-1.142-.266-.27-.634-.404-1.1-.404-.524 0-.947.162-1.27.489-.324.327-.484.828-.484 1.505v3.204h-1.052v-8.464h1.052v3.29c.428-.686 1.08-1.028 1.959-1.028zm6.637.992c-.564 0-1.032.158-1.401.477-.372.317-.601.743-.69 1.276h4.038c-.088-.573-.315-1.008-.676-1.307a1.947 1.947 0 00-1.27-.446h-.001zm-2.092 2.672c.106.54.354.958.744 1.257.392.299.872.447 1.446.447.797 0 1.378-.294 1.74-.883l.894.508c-.588.91-1.474 1.367-2.66 1.367-.958 0-1.738-.3-2.338-.902-.602-.6-.9-1.36-.9-2.278 0-.911.293-1.67.882-2.274.588-.604 1.35-.906 2.284-.906.888 0 1.611.312 2.171.937.56.624.84 1.376.84 2.255 0 .153-.01.31-.036.472h-5.067zm7.365-2.492c.345-.75.974-1.124 1.885-1.124v1.1c-.516-.024-.959.113-1.33.412-.372.298-.556.777-.556 1.438v3.204h-1.052v-6.045h1.052v1.015h.001zm5.923-1.172c.71 0 1.278.224 1.704.67.428.448.642 1.055.642 1.82v3.712h-1.051v-3.652c0-.49-.135-.872-.4-1.142-.265-.27-.633-.404-1.1-.404-.524 0-.947.162-1.27.489-.323.327-.483.828-.483 1.505v3.204h-1.052v-6.045h1.052v.87c.428-.685 1.08-1.027 1.958-1.027zm6.637.992c-.563 0-1.031.158-1.4.477-.373.317-.602.743-.691 1.276h4.038c-.088-.573-.314-1.008-.676-1.307a1.947 1.947 0 00-1.27-.446h-.001zm-2.091 2.672c.105.54.353.958.744 1.257.392.299.872.447 1.445.447.797 0 1.379-.294 1.74-.883l.895.508c-.588.91-1.475 1.367-2.66 1.367-.959 0-1.739-.3-2.339-.902-.601-.6-.9-1.36-.9-2.278 0-.911.293-1.67.883-2.274.588-.604 1.349-.906 2.284-.906.888 0 1.61.312 2.17.937.56.624.84 1.376.84 2.255 0 .153-.01.31-.036.472H267.599zm9.42-2.492h-1.608v3.277c0 .299.057.51.173.635.117.125.297.189.539.193.241.005.54-.001.896-.019v.944c-.92.122-1.594.047-2.02-.224-.427-.269-.642-.778-.642-1.529v-3.277h-1.197v-1.015h1.197v-1.379l1.054-.314v1.693h1.608v1.015" fill="#FCFCFC"/><path d="M264.313 799.307h-73.437v-20.808h73.437v20.808z" fill="#D62A35"/><path d="M206.73 788.072l1.358.652c-.313 1.075-.86 1.748-1.639 2.02-.778.27-1.754.08-2.925-.57-.917-.495-1.575-.693-1.973-.59-.399.103-.7.492-.906 1.168l-1.357-.633c.313-1.075.865-1.748 1.656-2.02.792-.271 1.753-.087 2.89.552.94.508 1.607.71 2 .606.393-.101.69-.497.897-1.185h-.001zm3.007 7.678v-1.377l4.472-4.564c1.196-1.193 1.794-2.22 1.794-3.077 0-.712-.218-1.267-.652-1.665-.436-.399-.967-.598-1.595-.598-1.195 0-2.064.567-2.608 1.702l-1.41-.834c.398-.82.95-1.441 1.655-1.865a4.484 4.484 0 012.346-.633c1.062 0 1.985.35 2.77 1.05.786.7 1.178 1.642 1.178 2.824 0 1.28-.756 2.675-2.264 4.184l-3.242 3.223h5.74v1.63h-8.184zm9.543 0v-1.377l4.472-4.564c1.196-1.193 1.793-2.22 1.793-3.077 0-.712-.217-1.267-.652-1.665-.434-.399-.966-.598-1.593-.598-1.196 0-2.064.567-2.61 1.702l-1.41-.834c.399-.82.95-1.441 1.656-1.865a4.478 4.478 0 012.345-.633c1.063 0 1.986.35 2.771 1.05.785.7 1.177 1.642 1.177 2.824 0 1.28-.756 2.675-2.262 4.184l-3.243 3.223h5.741v1.63h-8.185zm12.041-2.698c.555.857 1.347 1.285 2.372 1.285 1.027 0 1.82-.428 2.383-1.285.56-.857.84-2.07.84-3.64 0-1.57-.28-2.785-.84-3.65-.563-.862-1.356-1.293-2.383-1.293-1.025 0-1.817.428-2.372 1.284-.556.859-.833 2.078-.833 3.659 0 1.57.277 2.783.833 3.64zm5.976 1.141c-.857 1.195-2.058 1.792-3.604 1.792-1.545 0-2.746-.597-3.604-1.792-.856-1.196-1.285-2.789-1.285-4.781 0-1.992.43-3.585 1.285-4.78.858-1.196 2.059-1.793 3.604-1.793 1.546 0 2.747.597 3.604 1.793.858 1.195 1.286 2.788 1.286 4.78 0 1.992-.428 3.585-1.286 4.781zm13.453-.018c.569 0 1.046-.2 1.433-.598.385-.398.578-.886.578-1.466a1.995 1.995 0 00-.588-1.45 1.929 1.929 0 00-1.422-.597h-3.784v4.11l3.783.001zm-.397-9.526h-3.386v3.876h3.386c.531 0 .978-.188 1.339-.561.363-.375.544-.833.544-1.377 0-.531-.184-.987-.552-1.367-.37-.38-.812-.57-1.33-.57l-.001-.001zm2.172 4.528c.58.278 1.043.676 1.387 1.195.343.519.515 1.116.515 1.792 0 1.015-.355 1.865-1.068 2.553-.714.69-1.582 1.034-2.608 1.034h-5.468v-12.676h5.07c.99 0 1.83.332 2.516.996.69.664 1.034 1.484 1.034 2.461 0 1.123-.46 2.004-1.378 2.645z" fill="#FCFCFC"/><path d="M99.921 350.033l-.234-.097a.337.337 0 01-.098-.236.336.336 0 01.098-.236l37.09-37.092a.337.337 0 01.458.014c.06.06.095.141.097.226a.33.33 0 01-.084.232l-37.09 37.092-.237.097z" fill="#53A4E0"/><path d="M136.603 350.033l-.236-.097a.337.337 0 010-.472L170.13 315.7a.334.334 0 01.47.472l-33.762 33.764-.236.097" fill="#3270BF"/><path d="M173.693 312.608l-2.773 6.607-.803-3.03-3.029-.802 6.605-2.775zm1.591 37.425l-.236-.097a.344.344 0 01-.073-.108.351.351 0 010-.256.344.344 0 01.073-.108l33.763-33.764a.332.332 0 01.472 0 .332.332 0 010 .472l-33.763 33.764-.236.097z" fill="#3270BF"/><path d="M212.375 312.608l-2.774 6.607-.802-3.03-3.03-.802 6.606-2.775" fill="#3270BF"/><path d="M212.965 350.033l-.236-.097a.344.344 0 01-.073-.108.351.351 0 010-.256.344.344 0 01.073-.108l33.763-33.764a.334.334 0 01.472.472L213.2 349.936l-.235.097z" fill="#EA1E26"/><path d="M250.056 312.608l-2.773 6.607-.804-3.03-3.028-.802 6.605-2.775" fill="#EA1E26"/><path d="M62.24 350.033l-.236-.097a.339.339 0 01-.098-.236.336.336 0 01.098-.236l37.092-37.092a.334.334 0 01.472.472l-37.093 37.092-.235.097" fill="#53A4E0"/><path d="M244.833 411.424a.33.33 0 01-.235-.098.33.33 0 01-.098-.235v-16.603c0-.183.15-.333.333-.333h55.426a.334.334 0 010 .667h-55.092v16.269c0 .184-.15.333-.334.333" fill="#673388"/><path d="M304.968 394.488l-6.633 2.71 1.573-2.71-1.573-2.71 6.633 2.71z" fill="#673388"/><path d="M277.503 429.527h-.667v-13.194h23.003V417h-22.336v12.527z" fill="#EA1E26"/><path d="M304.545 416.667l-6.632 2.71 1.574-2.71-1.574-2.71 6.632 2.71zM277.503 531.61h-.667v-34.907h.667v34.908" fill="#EA1E26"/><path d="M244.833 527.237a.334.334 0 01-.333-.333v-28.755c0-.182.15-.333.333-.333.184 0 .334.15.334.333v28.755c0 .183-.15.333-.334.333z" fill="#673388"/><path d="M244.833 531.61l-2.71-6.633 2.71 1.575 2.71-1.575-2.71 6.634" fill="#673388"/><path d="M312.363 623.747l-.235-.099a.33.33 0 01-.072-.362.33.33 0 01.072-.108l72.281-72.282.235-.097h69.62V193.14h-45.917l-.236-.097-49.862-49.86a.337.337 0 010-.472.334.334 0 01.472 0l49.763 49.763h46.113c.184 0 .334.149.334.333v358.324c0 .183-.15.333-.334.333h-69.814l-72.184 72.183-.236.099" fill="#263D78"/><path d="M309.033 626.741l2.775-6.605.803 3.028 3.029.804-6.607 2.773zm-.176-12.2l-.234-.097a.344.344 0 01-.073-.108.351.351 0 010-.256.344.344 0 01.073-.108l72.957-72.957.236-.098h62.836V200.896H193.755l-.235-.097-51.25-51.251a.335.335 0 01.001-.471.335.335 0 01.471.001l51.151 51.151h251.092c.184 0 .334.15.334.334V541.25c0 .182-.15.333-.334.333h-63.03l-72.862 72.86-.236.097" fill="#263D78"/><path d="M139.176 145.984l2.775 6.607.802-3.03 3.03-.802-6.607-2.775" fill="#263D78"/><path d="M478.644 789.236h-214.33a.338.338 0 01-.236-.098.334.334 0 01.235-.569h214.331a.334.334 0 010 .667zm-287.768 0H5.733a.332.332 0 01-.333-.334.331.331 0 01.333-.333h185.143a.334.334 0 010 .667zm36.719-10.404a.334.334 0 01-.334-.333v-32.223a.332.332 0 01.334-.334.332.332 0 01.333.334v32.223c0 .184-.15.333-.333.333" fill="#D62A35"/><path d="M227.595 741.57l2.71 6.631-2.71-1.573-2.71 1.573 2.71-6.632" fill="#D62A35"/><path d="M473.937 766.357H433.03v-.666h40.908v.666" fill="#263D78"/><path d="M478.644 766.024l-6.632 2.71 1.573-2.71-1.573-2.71 6.632 2.71zm-155.114.333h-56.51l-24.552-24.552.47-.472 24.358 24.358h56.233v.666h.001zm-142.89 0H5.733v-.666h174.631l20.167-20.167.472.47-20.363 20.363" fill="#263D78"/><path d="M204.095 742.43l-2.774 6.607-.804-3.029-3.029-.803 6.607-2.774" fill="#263D78"/><path d="M302.361 184.343h-96.289l-34.796-34.795.47-.47 34.602 34.598h96.013v.667" fill="#EA1E26"/><path d="M168.184 145.984l6.607 2.773-3.03.804-.802 3.03-2.775-6.607zm141.041 527.535l-.236-.099a.34.34 0 01-.097-.235.323.323 0 01.097-.235l69.055-69.055.236-.098h88.997V184.343H369.08a.334.334 0 010-.667h98.53c.185 0 .334.15.334.333v420.122c0 .182-.15.333-.333.333h-89.194l-68.956 68.956-.236.099" fill="#EA1E26"/><path d="M308.81 684.641l-.234-.097a.34.34 0 01-.097-.235.323.323 0 01.097-.235l70.101-70.102.235-.097h94.71V179.516H415.37l-.236-.097-32.907-32.907a.328.328 0 01-.001-.471.344.344 0 01.108-.073.346.346 0 01.255 0 .34.34 0 01.108.072l32.811 32.81h58.446c.182 0 .333.149.333.333v435.025c0 .184-.15.333-.333.333H379.05l-70.004 70.003-.236.097" fill="#EA1E26"/><path d="M379.135 142.948l2.774 6.607.803-3.03 3.03-.802-6.607-2.775zm-7.656 510.202H329.16v-20.207h42.318v20.206" fill="#EA1E26"/><path d="M339.355 637.321h1.388v12.134h-1.596v-10.4l-2.582.762-.4-1.386 3.19-1.11zm4.835 12.324a1.103 1.103 0 01-.797-.329 1.103 1.103 0 01-.329-.797c0-.312.11-.578.33-.798.22-.218.485-.329.797-.329.324 0 .592.11.806.33.214.22.32.485.32.797a1.1 1.1 0 01-.32.797 1.08 1.08 0 01-.806.33l-.001-.001zm4.214 0a1.09 1.09 0 01-.799-.329 1.103 1.103 0 01-.329-.797c0-.312.11-.578.33-.798.22-.218.485-.329.798-.329.323 0 .59.11.805.33.214.22.32.485.32.797a1.1 1.1 0 01-.32.797 1.08 1.08 0 01-.805.33v-.001zm4.212 0a1.09 1.09 0 01-.799-.329 1.103 1.103 0 01-.329-.797c0-.312.11-.578.33-.798.22-.218.485-.329.798-.329.323 0 .59.11.805.33.214.22.322.485.322.797 0 .312-.108.577-.322.797a1.08 1.08 0 01-.805.33v-.001zm6.914-11.006c-.611 0-1.122.162-1.533.485-.41.324-.614.803-.614 1.439 0 .613.206 1.089.624 1.429.414.341.924.512 1.524.512.601 0 1.109-.17 1.526-.512.415-.34.624-.816.624-1.43 0-.635-.202-1.114-.606-1.438-.406-.323-.919-.485-1.544-.485h-.001zm0 9.5c.775 0 1.397-.183 1.865-.548.468-.363.702-.887.702-1.568 0-.67-.234-1.187-.702-1.551-.468-.365-1.09-.547-1.864-.547-.762 0-1.378.182-1.844.547-.47.364-.703.881-.703 1.55 0 .682.233 1.206.703 1.569.466.365 1.082.548 1.844.548h-.001zm2.271-4.959c.591.3 1.054.705 1.387 1.213.336.51.503 1.086.503 1.734 0 1.109-.387 1.978-1.162 2.609-.773.63-1.773.944-2.998.944-1.212 0-2.207-.315-2.98-.944-.775-.63-1.162-1.5-1.162-2.61 0-.647.167-1.223.503-1.733a3.54 3.54 0 011.387-1.213c-.994-.624-1.491-1.508-1.491-2.652 0-1.097.367-1.944 1.1-2.54.735-.595 1.615-.892 2.643-.892 1.041 0 1.928.297 2.661.892.733.596 1.101 1.443 1.101 2.54 0 1.144-.497 2.028-1.492 2.652" fill="#FCFCFC"/><path d="M371.479 591.768H329.16V571.56h42.318v20.208" fill="#263D78"/><path d="M339.355 575.939h1.388v12.134h-1.596v-10.4l-2.582.762-.4-1.387 3.19-1.11v.001zm4.835 12.324c-.311 0-.577-.11-.797-.33a1.093 1.093 0 01-.329-.796c0-.313.11-.578.33-.797.22-.22.485-.33.797-.33.324 0 .592.11.806.33.214.219.32.484.32.797 0 .312-.106.578-.32.796-.214.22-.482.33-.806.33h-.001zm4.214 0c-.313 0-.579-.11-.799-.33a1.093 1.093 0 01-.329-.796c0-.313.11-.578.33-.797.22-.22.485-.33.798-.33.323 0 .59.11.805.33.214.219.32.484.32.797 0 .312-.106.578-.32.796-.214.22-.482.33-.805.33zm4.212 0c-.313 0-.579-.11-.799-.33a1.093 1.093 0 01-.329-.796c0-.313.11-.578.33-.797.22-.22.485-.33.798-.33.323 0 .59.11.805.33a1.097 1.097 0 01.322.797c0 .312-.108.578-.322.796-.214.22-.482.33-.805.33zm6.914-11.007c-.611 0-1.122.161-1.533.487-.41.322-.614.802-.614 1.438 0 .612.206 1.088.624 1.43.414.341.924.512 1.524.512.601 0 1.109-.171 1.526-.512.415-.342.624-.818.624-1.43 0-.636-.202-1.116-.606-1.438-.406-.326-.919-.487-1.544-.487h-.001zm0 9.499c.775 0 1.397-.182 1.865-.546.468-.364.702-.886.702-1.569 0-.67-.234-1.187-.702-1.55-.468-.365-1.09-.547-1.864-.547-.762 0-1.378.182-1.844.546-.47.364-.703.882-.703 1.551 0 .683.233 1.205.703 1.57.466.363 1.082.545 1.844.545h-.001zm2.271-4.956c.591.3 1.054.704 1.387 1.213.336.508.503 1.085.503 1.733 0 1.11-.387 1.979-1.162 2.608-.773.63-1.773.946-2.998.946-1.212 0-2.207-.316-2.98-.946-.775-.629-1.162-1.498-1.162-2.608 0-.648.167-1.225.503-1.733.347-.52.825-.939 1.387-1.213-.994-.624-1.491-1.508-1.491-2.654 0-1.097.367-1.944 1.1-2.538.735-.595 1.615-.894 2.643-.894 1.041 0 1.928.299 2.661.894.733.594 1.101 1.441 1.101 2.538 0 1.146-.497 2.03-1.492 2.654" fill="#FCFCFC"/><path d="M175.481 536.113l-.234-.097-25.078-25.077-.097-.236v-99.559l.097-.235 15.987-15.988a.334.334 0 01.472.472l-15.89 15.89v99.282l24.98 24.979c.13.13.13.341 0 .472l-.237.097" fill="#EA1E26"/><path d="M165.845 561.379H139.84a.332.332 0 01-.334-.334v-23.002l-26.772-26.772-.097-.236v-99.891l.097-.235 15.987-15.988a.334.334 0 01.47.472l-15.887 15.89v99.614l26.772 26.772.097.236v22.807h25.673c.183 0 .334.15.334.333a.335.335 0 01-.334.334" fill="#3270BF"/><path d="M165.845 588.407h-60.042a.334.334 0 01-.334-.334V539.32L77.42 511.27l-.097-.235V411.09l.097-.235 14.104-14.103a.335.335 0 01.47.472L77.99 411.23v99.668l28.05 28.05.097.236v48.557h59.71c.182 0 .333.15.333.333a.336.336 0 01-.334.334" fill="#3270BF"/><path d="M161.136 622.787H66.448a.337.337 0 01-.333-.334v-83.361l-27.82-27.821-.099-.236V411.09l.099-.235 15.32-15.321a.335.335 0 01.47.472l-15.222 15.222v99.668l27.821 27.822.097.236v83.165h94.355a.334.334 0 010 .667" fill="#53A4E0"/><path d="M165.845 622.453l-6.633 2.711 1.573-2.71-1.573-2.71 6.633 2.71v-.001zm-4.709 27.335H28.933a.332.332 0 01-.333-.333V539.05L.82 511.27l-.097-.236v-100.15l.097-.236 15.32-15.321a.332.332 0 01.472 0 .334.334 0 010 .472L1.389 411.023v99.874l27.78 27.78.098.236v110.208h131.869a.334.334 0 010 .667" fill="#53A4E0"/><path d="M165.845 649.455l-6.633 2.71 1.573-2.71-1.573-2.71 6.633 2.71z" fill="#53A4E0"/><path d="M218.767 582.644l1.856-.14-1.856 5.961 3.225-2.034-1.37 6.768.774-.526-1.403 2.384-.554-2.454.554.596.387-4.874-3.156 1.928 1.543-7.609" fill="#050607"/></svg>