<?xml version="1.0" standalone="no"?>
<!DOCTYPE svg PUBLIC "-//W3C//DTD SVG 20010904//EN"
 "http://www.w3.org/TR/2001/REC-SVG-20010904/DTD/svg10.dtd">
<svg version="1.0" xmlns="http://www.w3.org/2000/svg"
 width="1024.000000pt" height="1024.000000pt" viewBox="0 0 1024.000000 1024.000000"
 preserveAspectRatio="xMidYMid meet">
<metadata>
Created by potrace 1.11, written by Peter Selinger 2001-2013
</metadata>
<g transform="translate(0.000000,1024.000000) scale(0.100000,-0.100000)"
fill="#000000" stroke="none">
<path d="M1640 6654 c-218 -58 -367 -261 -355 -484 22 -398 497 -592 774 -317
116 116 165 272 137 437 -11 69 -70 180 -122 233 -116 118 -288 169 -434 131z"/>
<path d="M84 5119 c1 -443 3 -512 16 -519 12 -7 272 -191 345 -244 20 -15 352
-249 513 -363 45 -32 90 -64 100 -71 43 -32 310 -219 334 -235 23 -14 51 -17
171 -17 l143 0 0 940 0 940 -158 0 c-143 0 -158 -2 -159 -17 0 -10 -1 -193 -1
-406 -1 -284 -4 -387 -12 -384 -6 3 -65 42 -131 88 -66 45 -163 112 -215 148
-53 36 -128 89 -168 116 -79 55 -358 248 -382 265 -79 56 -391 270 -393 270
-2 0 -3 -230 -3 -511z"/>
<path d="M1790 4610 l0 -940 160 0 160 0 0 405 c0 223 3 405 6 405 3 0 39 -24
79 -52 40 -29 82 -59 92 -66 10 -7 125 -89 256 -182 131 -94 242 -170 247
-170 4 0 10 -4 12 -8 4 -9 554 -401 573 -408 11 -4 13 90 14 499 l1 505 -28
21 c-15 12 -164 121 -332 242 -168 121 -316 229 -330 239 -14 10 -159 116
-324 234 l-299 216 -143 0 -144 0 0 -940z"/>
<path d="M3990 5278 l0 -267 300 1 300 0 -2 266 -3 267 -297 0 -298 0 0 -267z"/>
<path d="M5295 5538 c-127 -18 -231 -72 -330 -172 -115 -116 -165 -234 -170
-398 -8 -269 156 -508 402 -587 90 -29 112 -30 506 -31 l338 0 25 -25 c17 -17
23 -32 20 -49 -7 -37 -24 -64 -45 -71 -14 -4 -1262 -10 -1389 -6 -21 1 -56 31
-58 51 -1 6 -2 142 -3 303 l-1 293 -300 0 -300 0 0 -633 0 -632 1088 3 c598 1
1100 6 1115 9 238 61 406 234 462 477 61 266 -79 553 -335 685 -19 10 -66 26
-105 36 -61 16 -113 18 -417 18 -301 -1 -349 1 -371 15 -65 43 -59 146 12 176
23 9 186 12 677 12 646 0 646 0 668 -21 21 -22 21 -22 23 -699 1 -372 2 -685
2 -694 1 -16 23 -18 301 -17 l300 1 0 959 c0 946 0 959 -20 979 -11 11 -23 21
-27 21 -32 6 -2030 2 -2068 -3z"/>
<path d="M7612 5525 l-24 -20 -1 -962 -2 -962 303 0 302 0 0 690 c0 437 4 697
10 709 5 10 23 21 39 25 41 9 1221 10 1248 1 13 -4 26 -18 29 -31 5 -21 9
-108 5 -147 -1 -15 -28 -16 -293 -17 -161 -1 -306 -3 -323 -6 -213 -40 -389
-181 -465 -376 -61 -155 -58 -342 8 -487 77 -170 248 -309 424 -346 48 -10
207 -13 671 -13 l608 0 -4 701 c-2 385 -7 717 -11 736 -51 241 -213 422 -444
496 -62 20 -235 24 -1241 27 -810 3 -815 2 -839 -18z m1907 -1260 l0 -84 -127
-3 c-70 -2 -189 -2 -264 0 -131 3 -137 4 -162 29 -34 34 -34 79 -1 116 l26 27
264 0 264 0 0 -85z"/>
</g>
</svg>
